<?xml version="1.0" encoding="utf-8"?>
<!-- Generator: Adobe Illustrator 14.0.0, SVG Export Plug-In . SVG Version: 6.00 Build 43363)  -->
<!DOCTYPE svg PUBLIC "-//W3C//DTD SVG 1.1//EN" "http://www.w3.org/Graphics/SVG/1.1/DTD/svg11.dtd">
<svg version="1.1" id="Layer_2" xmlns="http://www.w3.org/2000/svg" xmlns:xlink="http://www.w3.org/1999/xlink" x="0px" y="0px"
	 width="1017.519px" height="1413.439px" viewBox="0 0 1017.519 1413.439" enable-background="new 0 0 1017.519 1413.439"
	 xml:space="preserve">
<g>
	<g>
		<path fill="#4E473D" d="M251.865,61.63c-99.411,0-180,80.589-180,180s80.589,180,180,180s180-80.589,180-180
			S351.276,61.63,251.865,61.63z M251.865,286.923c-25.016,0-45.293-20.278-45.293-45.293s20.277-45.293,45.293-45.293
			c25.015,0,45.293,20.278,45.293,45.293S276.879,286.923,251.865,286.923z"/>
		<path fill="none" stroke="#645A4F" stroke-linecap="round" d="M204.458,83.261c-51.223,15.312-92.014,54.797-109.13,105.215
			 M208.081,95.375c-47.307,14.141-84.974,50.606-100.78,97.168 M211.708,107.485c-43.39,12.97-77.939,46.416-92.436,89.123
			 M215.333,119.599c-39.471,11.798-70.9,42.223-84.089,81.072"/>
	</g>
	<path fill="#788335" d="M411.912,235.515l0.02,0.021c4.841,0.674,9.78-0.888,13.521-3.956c2.527-2.044,4.108-4.57,5.576-7.194
		c-0.059-0.732-0.136-1.465-0.213-2.198c-0.115-1.158-0.251-2.334-0.405-3.492c-0.173-1.407-0.386-2.835-0.578-4.244
		c-0.174-1.099-0.349-2.18-0.541-3.259c-0.945-5.595-2.161-11.092-3.626-16.493c-0.02-0.135-0.059-0.251-0.096-0.367
		c-0.271-1.003-0.541-2.006-0.85-3.009c-0.174-0.675-0.387-1.35-0.579-2.006c-0.25-0.81-0.501-1.62-0.751-2.43
		c-0.078-0.251-0.154-0.482-0.232-0.714c-2.604-8.024-5.73-15.779-9.394-23.263c-0.501-1.081-1.042-2.161-1.602-3.221
		c-0.599-1.196-1.215-2.373-1.87-3.549c-0.888-1.66-1.796-3.28-2.739-4.9c-3.356-0.328-6.81,0.077-10.052,1.311
		c-2.816-4.609-7.889-7.426-13.213-7.946c-6.152-0.58-11.632-3.878-17.707-0.753l-0.077,0.058c-2.72,1.408-5.054,3.434-6.868,5.923
		c-3.838-8.063-13.213-8.623-19.927-3.801c-3.336,2.47-5.688,6.308-5.4,10.552c0.349,5.228,3.993,7.562,7.505,10.706l0.229,0.309
		c2.259,2.7,3.956,5.979,5.923,8.911c-2.43,0.328-4.783,1.196-6.848,2.546c-0.154,0.096-0.309,0.212-0.444,0.328
		c1.718,2.412,3.319,4.9,4.804,7.466c5.017,8.544,8.893,17.843,11.439,27.661c0.211,0.869,0.424,1.756,0.635,2.643
		c0.154,0.674,0.31,1.351,0.445,2.025c0.059,0.29,0.135,0.579,0.191,0.869c0.154,0.791,0.31,1.582,0.445,2.393
		c0.173,0.887,0.309,1.774,0.442,2.68c0.136,0.888,0.271,1.794,0.386,2.702c0.117,0.905,0.213,1.812,0.31,2.718
		c0.077,0.637,0.136,1.273,0.173,1.91c0.04,0.501,0.077,1.023,0.117,1.543c0.037,0.405,0.057,0.831,0.077,1.235
		c0.019,0.174,0.019,0.347,0.038,0.541c0.039,0.616,0.058,1.233,0.076,1.87c0.059,1.312,0.078,2.662,0.078,3.992
		c0,2.182-0.059,4.34-0.192,6.482c-0.04,0.81-0.099,1.619-0.175,2.41c-0.078,0.946-0.153,1.892-0.27,2.816
		c0,0.097-0.02,0.213-0.02,0.31c-0.096,0.791-0.193,1.601-0.29,2.392c-0.019,0.078-0.019,0.174-0.037,0.251
		c-1.119,8.294-3.184,16.3-6.077,23.899c-0.288,0.791-0.598,1.543-0.906,2.296c-0.174,0.464-0.367,0.906-0.56,1.351
		c-0.116,0.288-0.25,0.578-0.367,0.848c-0.308,0.733-0.637,1.466-0.983,2.2c-0.019,0.075-0.059,0.134-0.096,0.211
		c-4.745,10.282-11.073,19.695-18.653,27.933c-0.655,0.714-1.331,1.426-2.024,2.14c-0.482,0.522-1.004,1.042-1.524,1.545
		c-1.215,1.215-2.45,2.372-3.703,3.51c0.019,0.077,0.019,0.154,0.037,0.231l0.019,0.117c0.174,1.193,0.522,2.275,0.986,3.298
		l-0.176-0.059l-0.134-0.077l-0.309-0.444c-0.464-0.732-0.983-1.407-1.583-2.025c-0.154,0.117-0.309,0.251-0.442,0.387
		c-0.964,0.81-1.929,1.62-2.914,2.411c-0.038,0.037-0.077,0.077-0.134,0.115c-1.004,0.81-2.006,1.601-3.048,2.373
		c-0.136,0.096-0.271,0.192-0.405,0.309c-9.279,6.867-19.713,12.307-30.94,15.952c-2.161,0.695-4.358,1.332-6.578,1.91
		c-2.681,0.674-5.4,1.273-8.16,1.736c-0.944,0.174-1.908,0.328-2.894,0.482c-0.307,0.038-0.616,0.077-0.925,0.115
		c-0.868,0.136-1.774,0.25-2.662,0.347c-0.116,0.021-0.231,0.021-0.347,0.039c-1.063,0.115-2.142,0.211-3.223,0.31
		c-1.138,0.096-2.275,0.154-3.433,0.211c-2.315,2.432-4.302,5.035-4.611,8.911v0.097c-0.251,3.048,0.231,6.096,1.391,8.971
		c-8.894-1.023-14.313,6.615-13.774,14.872c0.309,4.127,2.315,8.16,6.059,10.166c4.628,2.487,8.545,0.635,13.076-0.694l0.368-0.02
		c3.511-0.481,7.175-0.193,10.705-0.309c-1.002,2.238-1.524,4.706-1.466,7.156c0.077,2.431,1.138,4.687,1.196,7.098v0.965
		c0.057,4.862,0.888,9.685,4.359,13.039c1.233-0.154,2.47-0.327,3.685-0.501c0.732-0.115,1.465-0.211,2.198-0.347
		c0.349-0.039,0.677-0.096,1.004-0.154c2.275-0.367,4.532-0.791,6.771-1.255c1.156-0.231,2.314-0.481,3.472-0.751
		c2.565-0.56,5.112-1.196,7.639-1.892c0.309-0.077,0.637-0.173,0.945-0.27c5.747-1.582,11.382-3.472,16.897-5.613
		c0.695-0.27,1.389-0.539,2.083-0.829c1.178-0.463,2.334-0.945,3.493-1.446c8.39-3.589,16.471-7.813,24.149-12.597
		c0.173-0.097,0.367-0.211,0.54-0.347c0.771-0.464,1.543-0.965,2.295-1.466c0.482-0.29,0.945-0.599,1.409-0.927
		c0.868-0.541,1.716-1.119,2.565-1.716c1.021-0.695,2.044-1.409,3.048-2.123c1.196-0.866,2.391-1.735,3.549-2.644
		c0.675-5.534-2.219-11.515-6.386-15.584c0.098-0.213,0.251-0.482,0.482-0.753l0.021-0.02c3.144-3.743,4.437-8.738,3.818-13.561
		c-0.136-1.042-0.386-2.025-0.675-2.971c1.794,0.56,3.627,1.081,5.46,1.774c2.275,0.85,4.089,2.45,6.501,3.106
		c2.545,0.674,5.246,0.791,7.83,0.29c5.497-1.023,10.455-4.516,13.754-8.971l0.019-0.019c0.426-0.522,1.119-1.042,1.929-1.447
		l0.328-0.154l0.154-0.059l0.541,0.117c1.138,0.27,2.296,0.384,3.452,0.384c0.115-0.154,0.231-0.307,0.347-0.481
		c0.503-0.675,0.985-1.349,1.447-2.025c3.703-5.265,7.137-10.745,10.263-16.415c0.501-0.927,1.002-1.852,1.484-2.778
		c1.523-2.835,2.952-5.729,4.302-8.66c0.02,0,0.02,0,0.02-0.021c0.386-0.866,0.791-1.734,1.177-2.622
		c0.232-0.503,0.443-0.985,0.656-1.486c0.405-0.925,0.791-1.87,1.177-2.816c0.424-1.002,0.848-2.044,1.253-3.066
		c0.985-2.507,1.892-5.035,2.76-7.601c0.405-1.216,0.81-2.412,1.194-3.646c0.386-1.215,0.754-2.43,1.1-3.646
		c0.31-1.041,0.6-2.083,0.888-3.125c0.059-0.193,0.116-0.386,0.154-0.599c-0.231-5.534,1.101-10.897-2.776-15.683l-0.077-0.077
		c-1.929-2.371-4.398-4.242-7.215-5.516c7.116-5.4,5.747-14.68-0.367-20.274c-2.14-1.908-4.842-3.201-7.657-3.451
		c1.619-2.393,2.815-5.171,3.413-7.969C411.236,235.478,411.564,235.478,411.912,235.515z"/>
	<path fill="#3C362E" d="M411.911,235.511l0.02,0.03c4.84,0.67,9.78-0.89,13.52-3.96c2.53-2.04,4.11-4.57,5.57-7.2
		c-0.34-3.78-0.81-7.53-1.41-11.23c-0.21-0.86-1.34-0.9-1.85-0.38c-3.38,3.77-4.86,12.61-12.11,13.95
		c-6.48,1.21-14.45-7.08-18.13-13.1c-0.64-1.02-1.16-2-1.51-2.83c-2.39-5.69-2.68-7.24,2.22-6.02c4.9,1.21,10.84,3.37,11.63,2.24
		c0.77-1.14-2.64-3.38-5.78-3.86c-3.17-0.48-7.99-2.3-7.64-3.78c0.61-2.68,5.4-5.27,12.25-6.54c4.76-0.9,10.47-1.25,14.92,0.72
		c0.88,0.43,1.68-0.16,1.34-1.47c-0.01-0.02-0.01-0.05-0.02-0.07c-0.56-1.97-1.15-3.92-1.78-5.84c-1.85,1.31-4.39,1.95-6.92,2.05
		c-5.31,0.19-12.69,2.75-16.21,3.95c-3.51,1.18-5.26-0.11-3.97-1.99c1.29-1.89,7.89-7.02,5.9-8.37c-1.98-1.37-8.91,7.26-10.12,6.43
		c-1.95-1.34-1.6-5.06-1.72-9.17c-0.1-4.11,3.72-18.01,13.17-18.84c3.07-0.27,5.45,0.03,7.3,0.72c0.01,0,0.02,0.01,0.03,0.01
		c0.78,0.29,1.78-0.78,1.25-1.85c0-0.01,0-0.02-0.01-0.03c-1.36-2.65-2.8-5.27-4.3-7.84c-3.36-0.33-6.81,0.08-10.05,1.31
		c-2.82-4.61-7.89-7.43-13.22-7.95c-6.15-0.58-11.63-3.87-17.7-0.75l-0.08,0.06c-2.72,1.41-5.05,3.43-6.87,5.92
		c-3.84-8.06-13.21-8.62-19.92-3.8c-3.34,2.47-5.69,6.31-5.41,10.55c0.35,5.23,4,7.56,7.51,10.71l0.23,0.31
		c2.26,2.7,3.96,5.98,5.92,8.91c-2.43,0.33-4.78,1.19-6.85,2.54c-0.15,0.1-0.3,0.22-0.44,0.33c1.72,2.41,3.32,4.9,4.8,7.47
		c2.88-2.41,7.68-2.32,14.08,0.69c7.28,3.42,10.92,9.05,16.46,13.62c-4.01,2.28-12.52-0.46-13.62-1.16c-1.1-0.67-3.65,1.41-1.1,1.76
		c2.55,0.36,1.93,3.34,4.28,2.91c2.38-0.44,4.86,0.04,5.12,1.43c0.28,1.5-7.12,6.17-13.78,8.41c1.12,4.34,1.97,8.78,2.55,13.31
		c0.58,4.51,0.87,9.12,0.87,13.81c0,1.02-0.02,2.03-0.04,3.03c-0.08,2.75-0.26,5.48-0.54,8.18c0,1,0.93,1.58,1.65,1.09
		c0.06-0.04,0.11-0.09,0.17-0.14c0.78-0.64,1.64-1.1,2.54-1.22c1.71,1.69,3.84,2.95,6.19,3.58c1.49,1.53,3.05,3.15,4.86,4
		c4.01,1.87,5.38,6.9,3.53,14.72c-1.85,7.83-6.62,12.55-9.93,18.9c-3.07-3.45-2.13-12.35-1.68-13.56c0.44-1.22-2.1-3.28-1.95-0.71
		c0.17,2.54-2.87,2.56-1.95,4.78c0.91,2.22,0.95,4.76-0.36,5.3c-1.24,0.51-6-4.18-9.55-9.39c-0.89,2.35-1.87,4.65-2.92,6.9
		c8.57,3.94,17.81,13.66,16.13,15.3c-1.93,1.87-9.55-1.81-11.69,0.06c-2.12,1.87-8.14,2.06-7.7,3.16c0.47,1.1,5.23,3.38,9.13,1.12
		c3.87-2.26,8.93-1.02,9.78,1.02c0.48,1.2-3.51,4.79-7.99,8.47c-3.7,3.07-7.73,6.2-9.74,8.05c-4.42,4.09-14.43,1.12-15.01-3.03
		c-0.29-2.1-0.59-4.07-1.56-6.21c-2.29,2.5-4.72,4.92-7.25,7.19c0,0-0.69,0.61-1.16,1.04c-2.24,1.95-4.55,3.82-6.94,5.6
		c3.18,2.77,2.37,7.58,0.15,11.42c-2.16,3.72-3.72,9.47-4.67,13.42c-0.23,0.93-0.42,1.74-0.58,2.41c-0.84,3.61-2.87,4.4-3.78,2.32
		c-0.9-2.1-1.77-10.42-3.97-9.45c-2.2,0.94,1.43,11.4,0.08,11.99c-2.16,0.93-5.13-1.31-8.66-3.41c-2.42-1.43-7.74-6.81-9.51-12.75
		c-2.16,0.7-4.36,1.33-6.58,1.91c0.71,0.29,1.31,0.73,1.71,1.21c1.84,2.17,10.48,11.71,13.97,13.08c3.51,1.37,0.58,2.99-1.16,2.3
		c-1.75-0.7-6.05-1.06-6.67,0.52c-0.62,1.58,10.47,2.12,9.49,4.63c-0.48,1.21-17.3,9.45-25.44,4.8c-8.14-4.63-9.61-9.78-9.34-13.6
		c0.3-3.65,3.78-4.23,7.47-9.01c0.81-0.98,0.35-1.94-0.87-1.75c-3.54,0.54-7.14,0.89-10.8,1.06c-2.32,2.43-4.31,5.04-4.62,8.91v0.1
		c-0.25,3.05,0.24,6.09,1.4,8.97c-8.9-1.02-14.32,6.61-13.78,14.87c0.31,4.13,2.32,8.16,6.06,10.17c4.63,2.48,8.54,0.63,13.08-0.7
		l0.36-0.02c3.51-0.48,7.18-0.19,10.71-0.31c-1,2.24-1.53,4.71-1.47,7.16c0.08,2.43,1.14,4.69,1.2,7.1v0.96
		c0.06,4.87,0.89,9.69,4.36,13.04c16.9-2.12,33.08-6.57,48.18-13.06c-2.35-0.85-4.49-2.29-6.15-4.9
		c-5.15-8.08-5.42-25.65-2.74-25.67c2.68,0,5.61,7.93,8.45,8.06c2.84,0.12,7.31,4.13,7.75,3.05c0.43-1.1-1.42-6.06-5.8-7.12
		c-4.36-1.06-7.16-5.44-6.33-7.52c0.39-0.98,4.03-1.04,8.51-0.77c0.29,0.01,0.58,0.03,0.88,0.05c5.38,0.32,11.67,1.03,14.82,1.09
		c6.02,0.11,11.19,9.18,8.72,12.57c-1.23,1.7-2.34,3.31-3.14,5.48c0,0.01-0.01,0.02-0.01,0.03c-0.37,1.22,0.75,1.99,1.81,1.39
		c3.69-2.37,7.29-4.89,10.79-7.53c0.68-5.54-2.22-11.54-6.39-15.61c0.1-0.21,0.26-0.48,0.49-0.75l0.02-0.02
		c3.14-3.74,4.43-8.74,3.82-13.56c-0.14-1.04-0.39-2.03-0.68-2.97c1.8,0.56,3.63,1.08,5.46,1.77c2.28,0.85,4.09,2.45,6.5,3.11
		c2.55,0.67,5.25,0.79,7.83,0.29c5.5-1.02,10.46-4.52,13.76-8.97l0.01-0.02c0.43-0.52,1.12-1.04,1.93-1.45l0.33-0.15l0.16-0.06
		l0.54,0.12c1.13,0.27,2.29,0.38,3.45,0.38c2.23-3.06,4.38-6.2,6.41-9.42v-0.01c0.49-1.07-0.87-1.94-1.7-1.14
		c-0.54,0.44-1.16,0.82-1.89,1.12c-5.69,2.33-9.34-2.39-10.61-7.54c-0.72-2.9-2.3-6.29-3.9-9.26c-1.23-2.34-2.47-4.4-3.3-5.79
		c-1.87-3.2-0.98-5.17,1.14-4.3c2.1,0.89,8.47,6.29,9.41,4.07c0.93-2.22-8.93-7.23-8.37-8.6c0.91-2.16,4.59-2.61,8.61-3.55
		c4.01-0.95,18.4-0.06,21.16,9.01c0.57,1.9,0.84,3.58,0.88,5.05c4.25-9.14,7.72-18.71,10.38-28.61c-0.23-5.53,1.1-10.91-2.78-15.7
		l-0.07-0.08c-1.93-2.37-4.4-4.24-7.22-5.51c7.12-5.4,5.75-14.68-0.37-20.28c-2.14-1.9-4.84-3.2-7.65-3.45
		c1.62-2.39,2.81-5.17,3.41-7.97C411.231,235.481,411.562,235.481,411.911,235.511z M370.591,151.761
		c3.39-1.78,5.81,1.21,12.44,1.64c6.65,0.42,8.51,5.67,7.64,8.39c-0.85,2.7-4.38,15.09-3.68,18.77c0.69,3.7-2.22,2.08-2.57,0.23
		c-0.35-1.85-2.3-5.69-3.97-5.38c-1.68,0.31,3.74,10.01,1.1,10.49c-1.28,0.25-17.19-9.66-17.58-19.02
		C363.611,157.531,367.191,153.531,370.591,151.761z M366.501,186.131c-8.37-9.1-15.45-21.52-17.63-24.19
		c-2.18-2.66-8.91-5.13-3.97-8.71c4.93-3.59,7.21-0.68,7.48,3.66c0.29,4.36,8.47,20.78,17.26,26.79
		c8.78,6.04,23.38,12.45,22.28,15.86C390.651,203.461,374.851,195.261,366.501,186.131z M374.312,247.841
		c-1.58-1.33-3.28-2.45-5.11-3.18c-0.35-0.68-0.62-1.47-0.77-2.34c-0.79-4.22-5.32-9.14-5.9-14.93c-0.2-2,0.07-4.1,1.14-6.32
		c4.12-8.63,18.88-18.19,20.31-15.92c1.44,2.26-3.75,8.97-2.34,11.44c1.39,2.47,0.35,8.39,1.53,8.18c1.15-0.21,4.38-4.42,2.95-8.68
		c-1.41-4.26,0.83-8.95,3.01-9.36c1.12-0.21,3.29,3.3,5.63,7.62c2.54,4.73,5.28,10.42,6.9,13.12c3.09,5.15-1.87,14.35-6.05,14.04
		c-4.19-0.27-7.81-0.4-14.53,3.92C378.542,247.071,376.241,247.841,374.312,247.841z M396.551,250.371
		c-0.56,0.96-1.1,1.98-1.67,2.99l-0.24,0.29c-2.2,2.76-5.05,5.07-7.5,7.62c-0.85-2.32-2.16-4.44-3.92-6.18
		c-0.17-0.15-0.36-0.29-0.54-0.42c2.01-0.95,3.82-2.24,5.79-3.24c2.1-1.1,4.2-1.22,6.54-1.06h0.12
		C395.611,250.411,396.071,250.391,396.551,250.371z M306.751,406.781c-0.01,0.04-0.02,0.07-0.04,0.11
		c-0.03,0.16-0.08,0.31-0.15,0.46c0,0.02-0.01,0.04-0.02,0.05c-1.85,4.33-11.53,6.26-13.2,6.05v0.01c-1.1-0.13-1.98-0.17-2.51,0.08
		c-2.11,1.04-7.89,2.81-10.38,0.19c-2.51-2.64-0.62-8.56-2.2-12.69c-1.58-4.13,0.91-8.7,7.66-13.06c6.75-4.36,13.46-4.47,20.25-6.75
		c-0.19,4.61-7.02,10.38-8.18,10.94c-1.17,0.58-0.75,3.83,0.89,1.87c1.66-1.97,3.86,0.13,4.74-2.1c0.87-2.24,2.61-4.09,3.92-3.57
		C309.141,389.001,308.991,399.801,306.751,406.781z M288.401,381.341c-12.18,2.26-26.45,1.7-29.86,2.14
		c-3.42,0.43-9.09,4.83-9.51-1.25c-0.43-6.09,3.26-6.48,7.07-4.42c3.84,2.09,22.09,3.82,31.87-0.44
		c9.78-4.24,22.96-13.23,25.25-10.49C315.881,370.021,300.551,379.091,288.401,381.341z M348.851,361.151
		c-2.49,6.37-14.48,8.66-21.45,8.43c-0.31,0-0.61-0.02-0.89-0.04c-0.58-0.04-1.1-0.1-1.58-0.17c-6.09-0.99-7.56-1.57-3.93-5.08
		c3.64-3.51,8.6-7.38,8.06-8.66c-0.56-1.27-4.26,0.44-6.35,2.86c-2.06,2.43-6.17,5.55-7.25,4.47c-1.37-1.39-1.6-4.57-0.7-8.62
		c0.37-1.62,0.93-3.38,1.65-5.23c2.54-6.46,7.03-13.98,14.48-14.31c7.45-0.31,11.52,2.97,12.37,7.97
		C344.121,347.741,351.681,353.951,348.851,361.151z M382.571,321.741c0.36,0.73,0.71,1.49,1.04,2.3
		c2.64,6.42,4.61,14.96-0.54,20.35c-5.17,5.4-10.36,5.82-14.45,2.83c-4.07-3.01-13.81-2.26-16.76-9.39
		c-2.62-6.39,4.59-16.48,9.78-21.07c0.63-0.56,1.23-1.04,1.79-1.42c5.08-3.51,6.54-4.11,6.35,0.92c-0.19,5.06-1.1,11.31,0.19,11.84
		c1.29,0.53,2.76-3.27,2.59-6.46c-0.18-3.18,0.61-8.29,2.12-8.25C377.091,313.461,380.101,316.651,382.571,321.741z
		 M415.981,278.341c2.43,2.95,0,5.92,0.96,12.52c0.95,6.59-3.82,9.47-6.65,9.2c-2.82-0.29-15.67-1.2-19.14,0.23
		c-3.47,1.43-2.47-1.76-0.73-2.47c1.74-0.71,5.09-3.41,4.44-5c-0.64-1.56-9.03,5.73-10.05,3.25c-0.51-1.2,5.94-18.81,15.02-21.09
		C408.921,272.691,413.551,275.391,415.981,278.341z M409.281,253.491c4.52,4.09,2.15,6.93-2.06,8.09
		c-4.21,1.15-18.58,12.53-22.68,22.37c-4.09,9.84-7.39,25.44-10.94,25.08c-4.09-0.44,0.69-17.59,7.89-27.64
		c7.21-10.05,17.9-19.54,20.06-22.22C403.711,256.501,404.751,249.401,409.281,253.491z"/>
	<path fill="#F5D471" d="M251.865,133.167c-59.903,0-108.463,48.561-108.463,108.463c0,59.903,48.56,108.463,108.463,108.463
		s108.463-48.56,108.463-108.463C360.328,181.728,311.768,133.167,251.865,133.167z M251.865,288.572
		c-25.928,0-46.941-21.018-46.941-46.941c0-25.924,21.014-46.941,46.941-46.941c25.924,0,46.941,21.017,46.941,46.941
		C298.806,267.554,277.789,288.572,251.865,288.572z"/>
	<path fill="#B1B566" d="M214.25,269.698h-67.184c-2.393-8.951-3.666-18.364-3.666-28.067c0-1.234,0.02-2.468,0.078-3.683h61.591
		c-0.097,1.215-0.155,2.448-0.155,3.683C204.914,252.165,208.388,261.884,214.25,269.698z M298.642,237.948
		c0.117,1.215,0.154,2.448,0.154,3.683c0,10.534-3.472,20.254-9.316,28.067h67.186c2.393-8.951,3.666-18.364,3.666-28.067
		c0-1.234-0.02-2.468-0.078-3.683H298.642z"/>
	<g>
		<path fill="#FCDFD0" d="M350.257,255.444c-0.811-3.728-4.623-1.563-6.869-1.008c-2.15,0.531-4.194,0.105-6.252-0.604
			c-2.469-0.852-4.899-1.792-7.41-2.522c-3.37-0.981-5.727,0.695-6.444,4.031c-3.372,0.803-5.454,3.354-5.686,6.813
			c-0.12,1.795,0.262,3.514,0.965,5.104c0,0-0.002,0-0.004,0c0.584,1.619-0.179,3.752-1.308,3.819c0,0,0.004,0.008,0.006,0.008
			c-3.569,0.49-6.4,3.546-6.927,7.592c-2.068-1.503-4.119-3.029-6.206-4.508c-1.912-1.354-4.079-3.303-6.602-2.956
			c-4.782,0.66-5.366,6.895-5.907,10.621c-0.222,3.137,3.869,3.33,5.933,4.37c2.16,1.077,4.211,2.372,6.234,3.705
			c1.251,0.868,0.147,2.496-1.176,3.816c-2.388-0.949-5.115-0.821-7.137,0.89l0.006-0.004c-2.543,2.091-3.662,4.885-3.862,7.887
			c-0.006,0.004-0.013,0.004-0.019,0.006c-0.359,2.313-2.287,2.979-3.271,2.348v0.002c-3.664-1.906-8.085,0.094-10.642,3.624
			c-3.178-1.525-6.873-0.158-9.256,2.176c-1.982-1.105-4.107-0.616-6.041,0.45l-0.004-0.004c-0.02,0.019-0.046,0.024-0.064,0.042
			c-0.125,0.069-0.249,0.137-0.371,0.211c-0.989,0.313-2.476-0.707-2.533-1.794c0.007-0.067,0.011-0.136,0.011-0.203v-0.038v-0.015
			c-0.036-3.887-2.918-7.115-6.893-7.115h-0.008l-0.047,0.002v-0.002c-0.008,0-0.015,0.002-0.022,0.002l-0.1,0.002v0.006
			c-3.631,0.085-6.188,3.255-6.641,6.659c-0.008,0.004-0.015,0.002-0.021,0.005c0,0.82-1.079,1.515-1.814,1.289
			c-0.063-0.038-0.136-0.064-0.201-0.102c-0.049-0.03-0.102-0.051-0.146-0.095l-0.004,0.02c-0.621-0.332-1.28-0.604-1.979-0.765
			c-0.482-0.111-0.97-0.166-1.46-0.198c0-0.004,0.002-0.006,0.002-0.01c-1.458-0.207-2.496-1.473-2.036-3.038h-0.002
			c0.519-1.766,1.028-3.532,1.501-5.311c0.728-2.744,1.438-5.924-1.396-7.757c-2.443-1.598-5.771-1.168-8.472-0.641
			c-1.006,0.199-1.941,0.475-2.661,0.941c-0.002,0-0.002-0.002-0.002-0.002c-0.716,0.381-2.353-0.007-1.661-1.403h-0.018
			c0.748-2.209-0.065-4.519-2.149-5.948l-0.007-0.004c-2.378-1.6-5.25-1.94-8.004-2.385c-3.128-0.294-3.418,3.796-4.501,5.832
			c-1.024,1.942-2.227,3.79-3.483,5.601c-1.394,1.981-3.592,1.256-4.533,0.314c1.276-3.813-0.563-7.164-3.734-8.969
			c0.004-0.006,0.012-0.014,0.016-0.019c-1.584-1.127-0.648-3.027,0.923-2.69l-0.008-0.01c2.315,0.395,4.604,0.3,6.722-0.586
			l0.006-0.001c5.518-2.265,5.642-10.224,3.16-14.829c-1.332-2.472-5.305-1.338-7.563-1.405c-0.232-0.008-0.464-0.03-0.697-0.04
			c-1.553-0.077-1.521-2.709,0.063-2.535l-0.008-0.006c3.332-0.477,2.053-7.305,1.314-9.422c-1.426-4.083-4.851-7.4-9.417-5.475
			l0.004-0.002c-2.423,1.024-4.672,2.494-6.994,3.725c-2.611,1.381-5.331,2.49-8.091,3.543c-3.715,1.416-7.495,2.664-11.363,3.594
			c-4.027,0.969-12.202,1.137-12.764,6.527c-0.46,4.41,3.879,8.091,6.637,10.926c0.529,0.486,1.197,0.709,1.868,0.729
			c-1.91,3.656-1.972,7.785,0.091,11.393c1.215,2.125,4.729,6.866,7.771,6.663v0.002c1.16,0.154,2.069,2.146,1.876,3.938
			c-0.004,0.051-0.008,0.104-0.012,0.156c0,0.004,0,0.01,0,0.014c0,0,0.002,0.002,0,0.004c-0.158,4.605,3.901,8.065,8.425,8.307
			c-0.902,2.98,0.71,5.313,3.048,7.002c1.277,0.923,3.36,2.366,5.195,2.487l0.004,0.021c1.162-0.132,2.547,1.501,3.722,3.407
			c0.002-0.002,0.004-0.002,0.008-0.002c0.497,1.247,1.419,2.415,2.926,3.443l-0.004-0.003c1.882,1.273,5.348,3.691,7.446,1.769
			c0.486,3.206,3.839,4.293,6.529,5.148c1.513,0.479,3.786,1.339,5.416,0.858c0.964,0,2.9-0.156,3.347,0.817
			c0.002,0,0.004,0,0.006,0c0.639,1.794,2.085,3.112,4.001,3.773c2.021,0.699,5.988,1.76,7.963,0.691
			c3.108,3.496,7.959,2.979,11.25,0.239l0.002,0.002c1.221-1.202,3.479-0.304,4.575,0.978c0.002-0.002,0.004-0.002,0.004-0.004
			c0.787,1.306,2.04,2.222,3.948,2.267l-0.002,0.011l0.138,0.004c0.004,0,0.007,0.002,0.011,0.002h0.032h0.006
			c2.669-0.021,6.503-0.148,8.88-1.639c0.14-0.089,0.239-0.188,0.354-0.284c0.002,0.002,0.013,0.019,0.013,0.019
			c1.05-1.049,3.732-1.88,5.367-0.797c0,0,0-0.002,0.002-0.002c1.475,1.344,3.438,1.899,5.553,1.565
			c2.271-0.355,6.381-1.531,7.79-3.454c3.313,1.057,7.469-1.174,9.685-3.599c1.699,0.955,3.643,0.972,5.478,0.383l0.008-0.002
			c2.059-0.688,3.809-2.146,5.133-3.839c0.959-1.227,1.01-2.938,0.038-4.004c0-0.001,0.002-0.001,0.004-0.003
			c-0.664-1.391,0.531-5.355,2.434-3.773c0.015,0.013,0.029,0.006,0.045,0.015c1.857,1.308,3.973,2.167,6.262,1.977
			c4.119-0.343,6.978-4.072,7.406-7.969c1.869,0.667,3.896,0.405,5.432-0.898l0.004-0.004c1.597-1.333,4.522-4.579,4.522-7.199
			c0.002-2.326,0.833-3.656,2.273-3.656c2.457,0.033,4.301-1.665,5.563-3.6l0.003-0.006c1.023-1.59,2.869-4.189,2.577-6.154
			c4.822-1.93,5.714-7.922,3.433-12.105c0.003,0,0.005-0.002,0.007-0.002c-0.642-1.463-0.493-3.187,1.25-3.285
			c0.017,0,0.009-0.022,0.023-0.026c3.216-0.394,6.13-1.951,7.109-5.483v-0.006c0.675-2.418,0.349-4.849-0.858-7.047
			C351.158,265.422,351.005,259.498,350.257,255.444z M225.792,304.241c-0.972,1.979-3.225,3.389-5.568,2.245
			c-2.522-1.235-2.767-3.478-1.886-5.28c1.018-2.073,3.561-3.618,5.723-2.562C226.495,299.836,226.738,302.302,225.792,304.241z
			 M252.544,313.808c-2.807,0.017-4.025-1.882-4.036-3.888c-0.014-2.308,1.576-4.826,3.981-4.84
			c2.709-0.017,4.026,2.082,4.039,4.238C256.544,311.527,255.154,313.792,252.544,313.808z"/>
		<path fill="#FCDFD0" d="M193.918,161.356c0.677,0.446,2.013,1.603,3.706,3.23c0.949,5.808,1.86,11.622,2.667,17.451
			c0.569,4.1,0.84,8.217,2.507,12.055c2.699,6.387,10.947,4.405,15.849,2.278l0.007-0.003c1.24-0.542,2.683-1.267,3.238-2.41
			l0.014,0.003c0.03-0.112,0.083-0.233,0.124-0.352c0.017-0.061,0.048-0.114,0.061-0.176c0.286-0.716,0.787-1.431,1.688-1.431
			c0.002-0.007,0.006-0.012,0.008-0.019c1.529-0.034,3.119-0.469,4.427-1.032l0.004-0.002c1.074-0.472,2.025-1.175,2.553-2.234
			c0.065-0.062,0.114-0.135,0.13-0.23c0.194-1.298,1.519-2.22,2.897-1.205v-0.001c2.418,2.018,5.334,3.244,8.507,1.865l0.005-0.002
			c1.65-0.702,3.154-1.808,4.398-3.222c2.08,1.08,4.345,1.554,6.484,1.596l0.341,0.004c2.675-0.009,5.374-0.596,7.695-1.945
			c1.024,1.985,2.897,3.09,5.017,3.62c1.783,0.437,4.779,1.211,6.467,0.259c2.95,3.863,8.083,6.19,12.93,5.944
			c3.928-0.198,7.26-3.195,6.627-6.756c0,0,0,0,0.002,0c-0.077-0.944-0.096-2.752,1.04-3.214c0.006-0.002,0-0.018,0.006-0.021
			c5.99-2.86,8.458-10.865,3.98-16.371c-4.459-5.481-11.664-5.527-17.386-2.495c0-0.001-0.004-0.005-0.005-0.007
			c-1.762,0.809-2.546,0.252-2.184-1.368c1.174-4.05,2.396-8.087,3.557-12.143c0.58-2.023,1.597-4.408,1.055-6.533
			c-0.62-2.429-2.95-3.587-5.272-3.815c-2.304-0.227-4.696,0.157-6.929,0.722c-2.115,0.535-2.221,2.289-2.134,4.093
			c0.169,3.525-0.758,7.194-1.782,10.698c-0.558,1.931-2.14,2.018-3.212,0.778l-0.002,0.021c-2.144-2.109-5.139-3.214-8.27-3.263
			l0.008,0.001l-0.221-0.003c-6.297,0-11.35,5.115-13.546,10.828c-0.004,0-0.006,0-0.008,0c-0.85,1.902-1.892,2.155-3.003,0.45
			c-3.979-6.472-7.094-13.551-10.153-20.457l-0.247-0.448c-2.123-3.1-7.601-2.373-10.598-1.284c-1.697,0.617-3.338,1.697-4.07,3.415
			c-0.314,0.724-0.383,1.382-0.322,2.012c0.525,2.71-3.317,3.5-4.382,2.225v0.001c-2.656-2.314-7.27-1.492-10.186-0.071
			C195.514,153.608,189.946,158.67,193.918,161.356z"/>
	</g>
	<g>
		<path fill="#D03633" d="M184.56,272c7.922,6.576,16.563,10.077,20.91,8.258c2.821-1.183,3.855-4.551,1.734-10.784
			c-8.107,0.58-15.507-0.829-20.457-3.561c-0.762-0.518-0.471-1.418,0.313-1.673c3.374-1.067,6.313-1.914,8.23-2.445
			c2.132-0.621,4.313-0.99,5.504-0.617c0.521-1.741-0.271-4.672-1.008-6.428c-1.008-2.407-2.634-3.952-5.224-2.869
			c-1.897,0.793-6.895,3.921-10.549,5.45c-16.093,6.742-20.801,5.887-25.473,7.844c-1.663,0.697-1.688,2.066-1.069,3.545
			c1.201,2.869,5.354,6.675,5.354,6.675c2.078-2.174,6.27-4.365,11.08-6.379c0.612-0.258,1.255-0.511,1.893-0.765
			c0.766-0.258,0.852,0.81,0.322,1.156c0,0,0.002,0,0.002,0.002c-6.303,4.098-14.369,10.438-11.321,17.715
			c0.852,2.037,2.6,4.131,5.533,6.33C172.44,286.155,176.722,277.947,184.56,272z"/>
		<path fill="#D03633" d="M200.996,297.582c-0.506-0.552-1.197-1.076-1.891-1.527c0.911-1.526,1.933-4.043,0.164-5.957
			c-4.633-5.007-14.385-1.519-19.908,3.589c-3.607,3.338-5.361,7.349-2.809,10.112c1.27,1.373,3.159,2.616,7.673,1.789v0.015
			c1.275-0.274,1.29,0.754,0.608,1.782c0.002,0.002,0.004,0.002,0.008,0.004c-1.354,1.831-1.875,3.415-0.63,4.764
			c1.908,2.062,5.163,3.218,5.163,3.218c0.604-4.519,1.962-6.667,4.171-8.71c1.914-1.771,4.429-3.41,7.742-6.475
			C202.169,299.366,201.816,298.466,200.996,297.582z M194.559,296.349c-0.239,0.362-0.489,0.72-0.757,1.059
			c-0.484,0.584-0.965,1.099-1.445,1.541c-4.232,3.915-8.74,3.919-9.626,2.96c-0.341-0.367,0.115-1.131,1.036-1.981
			c2.036-1.885,6.377-4.352,9.871-4.854c0,0.03,0,0.074,0,0.074C194.287,295.148,194.849,295.66,194.559,296.349z"/>
		<path fill="#D03633" d="M222.275,291.563c1.012-1.492,0.448-2.539-0.71-3.329c-2.202-1.489-6.647-1.9-6.647-1.9
			c-0.466,2.474-2.384,5.836-4.86,9.49c-3.518,5.189-8.208,11.035-11.473,15.85c-4.304,6.353-4.366,8.855-1.169,11.022
			c0.994,0.676,2.311,1.326,3.892,2.034c-0.328-2.466,2.477-7.408,6.163-12.847C212.451,304.535,219.152,296.17,222.275,291.563z"/>
		<path fill="#D03633" d="M221.441,312.216c0.747-1.529,0.736-2.766-0.886-3.559c-2.163-1.059-6.022-1.273-6.022-1.273
			c-0.207,2.021-0.953,4.114-1.922,6.096c-1.811,3.694-4.425,7.217-5.73,9.877c-1.033,2.117-1.27,3.733,0.354,4.528
			c3.875,1.896,7.13,2.204,7.13,2.204c-0.836-3.538-0.143-6.438,1.137-9.05C217.066,317.841,220.248,314.65,221.441,312.216z"/>
		<path fill="#D03633" d="M240.896,312.028c-2.09-0.484-4.719,0.115-6.807,1.784c-0.004,0-0.007-0.004-0.011-0.004
			c-0.906,0.635-1.273,0.071-0.989-1.014c1.604-5.913,3.301-11.117,4.216-15.083c0.409-1.758-0.493-2.532-1.863-2.849
			c-2.59-0.597-6.887,0.624-6.887,0.624c0.46,2.474-0.116,6.303-1.111,10.604c-3.498,15.147-4.342,15.468-6.024,22.748
			c-0.902,3.909-0.221,5.406,3.056,6.164c1.172,0.27,2.72,0.471,4.646,0.608c-0.608-1.072-0.397-3.575,0.158-6.594
			c0.015-0.538,0.81-0.564,0.872,0.012c0.002,0,0.002,0,0.004,0c0.401,4.265,1.833,7.965,4.966,8.688
			c2.347,0.541,6.224-1.548,7.141-5.299c-0.352-0.032-0.693-0.109-1.036-0.188c-3.764-0.868-7.148-3.813-8.456-8.181l0.78,0.181
			c5.522,1.273,9.933-1.772,10.823-5.633C245.254,314.786,243.439,312.616,240.896,312.028z M236.128,319.985
			c-0.261,1.125-1.24,2.238-3.049,1.817c-0.293-0.065-0.525-0.173-0.856-0.301c-0.017-0.363-0.073-0.789-0.071-1.249
			c1.489-1.769,2.539-2.298,3.223-2.14S236.33,319.105,236.128,319.985z"/>
		<path fill="#D03633" d="M256.184,318.399c-0.011-1.705-0.57-2.805-2.375-2.794c-2.407,0.014-5.958,1.543-5.958,1.543
			c0.713,1.9,0.977,4.106,0.992,6.313c0.022,4.114-0.752,8.432-0.732,11.391c0.015,2.359,0.525,3.911,2.332,3.899
			c4.312-0.026,7.365-1.199,7.365-1.199c-2.324-2.796-2.993-5.698-3.014-8.609C254.773,325.38,256.201,321.108,256.184,318.399z"/>
		<path fill="#D03633" d="M293.404,323.365c-0.665-2.05-1.285-6.068-2.447-9.647c-1.379-4.243-3.476-7.781-7.245-6.557
			c-2.099,0.68-4.131,2.868-5.311,5.89c-1.144-1.896-2.771-2.846-5.25-2.041c-1.858,0.606-3.634,2.288-4.811,4.673
			c-0.14-0.429-0.198-0.779-0.292-1.065c-0.558-1.717-1.731-1.914-3.066-1.483c-2.528,0.823-5.582,4.081-5.582,4.081
			c1.884,2.552,3.052,5.178,3.841,7.611c1.257,3.864,1.562,7.245,2.119,8.961c1.225,3.77,2.962,4.576,6.302,3.491
			c1.239-0.403,2.72-1.04,4.439-1.916c-1.991-0.778-3.553-3.962-4.762-7.682c-1.006-3.099-1.805-6.533-2.368-9.247
			c0.382-0.443,0.86-0.758,1.339-0.912c1.383-0.448,2.912,0.373,3.721,2.854c0.912,2.813,1.247,6.765,2.253,9.867
			c1.132,3.481,2.724,4.81,5.25,3.988c1.239-0.401,2.69-1.292,4.448-2.707c-1.692-0.665-2.707-2.656-3.514-5.135l-2.683-10.203
			c-0.136-0.431-0.262-0.812-0.433-1.177c0.433-0.616,0.976-1.057,1.548-1.241c1.336-0.434,2.835,0.45,3.721,3.168
			c0.864,2.671,1.213,6.828,2.251,10.025c0.99,3.054,2.577,5.175,5.82,4.122c2.289-0.744,3.941-3.126,3.941-3.126
			C295.148,327.439,294.148,325.655,293.404,323.365z"/>
		<path fill="#D03633" d="M313.539,303.478c-1.661-2.011-3.16-4.611-6.037-8.093c-0.767-0.927-1.688-0.622-2.615,0.145
			c-0.58,0.479-1.139,1.138-1.633,1.803c-1.473-0.994-3.928-2.153-5.938-0.491c-5.26,4.346-2.32,14.282,2.476,20.08
			c3.129,3.791,7.039,5.765,9.938,3.369c1.488-1.229,2.9-3.094,2.178-7.979c-0.166-0.964,0.606-1.209,1.117-0.749
			c0.002-0.002,0.002-0.004,0.002-0.006c2.068,1.912,3.861,2.884,5.476,1.548c2.167-1.789,3.5-4.975,3.5-4.975
			C317.523,307.277,315.455,305.798,313.539,303.478z M308.189,314.015c-0.387,0.32-1.121-0.179-1.922-1.144
			c-1.795-2.172-4.066-6.753-4.319-10.294c0.018-0.637,0.685-1.195,1.277-0.741c0.375,0.277,0.74,0.565,1.087,0.871
			c0.554,0.518,1.042,1.024,1.458,1.529C309.444,308.682,309.197,313.185,308.189,314.015z"/>
		<path fill="#D03633" d="M333.891,281.7c-0.147,0.322-0.339,0.616-0.527,0.911c-2.099,3.242-6.017,5.428-10.572,5.172l0.439-0.675
			c3.074-4.757,1.708-9.942-1.62-12.092c-3.285-2.125-5.943-1.153-7.359,1.036c-1.097,1.699-1.445,4.182-0.764,6.58
			c-0.002,0.004-0.006,0.004-0.01,0.007c0.204,0.854-0.438,1.521-0.93,1.178c-5.117-3.575-9.51-7.012-12.979-9.253
			c-1.517-0.981-2.551-0.397-3.313,0.781c-1.443,2.234-1.756,6.691-1.756,6.691c2.482,0.409,5.891,2.251,9.596,4.649
			c13.059,8.438,13.07,9.343,19.347,13.399c3.368,2.177,5.009,2.043,6.834-0.778c0.651-1.012,1.37-2.4,2.153-4.163
			c-1.074,0.185-2.988-0.614-5.248-1.873c-0.867-0.501-0.371-1.245,0.434-1.09c0.003-0.004,0.002-0.012,0.005-0.016
			c3.761,0.795,7.229,0.525,8.827-1.947C337.752,288.197,337.107,283.839,333.891,281.7z M320.79,286.727
			c-0.164,0.253-0.343,0.436-0.575,0.703c-0.348-0.105-0.768-0.2-1.201-0.358c-1.155-2-1.296-3.166-0.916-3.758
			c0.381-0.59,1.259-0.562,2.018-0.069C321.083,283.87,321.797,285.167,320.79,286.727z"/>
		<path fill="#D03633" d="M347.427,256.052c-4.161,1.863-6.704,1.833-9.602,1.026c-2.513-0.696-5.229-1.974-9.578-3.184
			c-1.159-0.321-1.739,0.456-2.062,1.614c-0.203,0.726-0.284,1.587-0.305,2.414c-1.778,0.025-4.453,0.479-5.152,2.991
			c-1.827,6.572,6.266,13.037,13.513,15.051c4.735,1.315,9.07,0.699,10.078-2.924c0.518-1.866,0.605-4.214-2.822-7.83
			c-0.379-0.387-0.41-1.323,0.456-1.219c0-0.002,0-0.006,0-0.008c2.827,0.397,4.882,0.187,5.449-1.85
			C348.155,259.43,347.427,256.052,347.427,256.052z M339.466,268.777c-0.133,0.484-1.022,0.496-2.23,0.162
			c-2.734-0.761-7.28-3.251-9.492-6.041c-0.367-0.511,0.034-1.255,0.75-1.262c0.443,0.013,0.888,0.037,1.326,0.088
			c0.754,0.105,1.441,0.245,2.068,0.418C337.448,263.689,339.815,267.521,339.466,268.777z"/>
		<path fill="#D03633" d="M262.169,180.038c0.031-1.505-1.146-2.831-3.647-3.135c-0.902,2.391-2.733,3.709-4.489,3.675
			c-2.543-0.052-3.741-2.232-3.984-5.008c-0.12-0.992,0.805-1.188,1.184-1.109c0.012,0.003,0.03-0.019,0.043-0.021
			c0.935,0.177,1.847,0.299,2.674,0.317c6.018,0.119,9.211-4.029,9.292-8.14c0.081-3.963-2.699-7.882-8.567-8
			c-6.017-0.12-11.875,6.783-12.019,13.957c-0.022,1.143,0.059,2.178,0.217,3.131c-0.002,0.002-0.004,0.001-0.005,0.002
			c0,0.656-0.634,1.379-1.125,0.992c-4.551-4.018-10.025-14.19-16.577-28.984c-0.771-1.142-5.039-1.145-7.661-0.006
			c-1.332,0.581-2.212,1.456-2.093,2.608c0.511,0.926,1.044,1.897,1.511,2.843c2.347,9.803,1.991,14.817,1.537,16.995
			c0,0.001,0,0.001,0,0.001c-0.091,0.496-1.059,0.818-1.515,0.362c-1.446-1.595-4.512-5.57-10.174-15.294
			c-1.01-1.694-4.271-1.645-7.075-0.423c-1.98,0.86-3.698,2.32-4.156,4.158c1.085,0.733,2.692,2.165,4.787,4.209
			c4.679,28.487,3.066,25.032,5.127,29.771c1.959,4.507,8.822,2.177,12.043,0.777c1.057-0.462,1.728-0.808,1.728-0.808
			c-3.244-2.8-5.678-6.885-7.515-11.117c-0.996-2.291-1.815-4.619-2.525-6.833c-0.144-0.582,0.44-1.608,1.15-0.848
			c3.69,4.276,7.774,9.212,12.029,14.697c0.306,0.578,3.043,0.207,4.699-0.513c0.601-0.262,1.019-0.553,1.15-0.883
			c-1.661-5.555-2.701-11.432-3.342-16.249c-0.132-1.168,0.533-0.824,1.117-0.24c0.002,0,0.002-0.001,0.002-0.001
			c5.285,9.994,10.417,17.629,15.164,15.565c2.091-0.91,3.756-2.359,4.808-4.574c2.016,1.869,4.694,2.657,7.288,2.709
			C257.812,184.716,262.12,182.544,262.169,180.038z M255.308,164.449c0.554,0.01,0.94,0.771,0.918,1.824
			c-0.034,1.692-1.182,4.07-4.352,4.948c-0.744,0.229-1.515-0.239-1.289-1.198C251.424,166.95,253.148,164.406,255.308,164.449z"/>
		<path fill="#D03633" d="M266.939,186.385c1.168,0.29,2.627,0.445,4.354,0.562c-1.162-2.198-0.239-7.807,1.338-14.183
			c2.129-8.617,5.518-18.781,6.853-24.185c0.434-1.753-0.455-2.54-1.819-2.878c-2.579-0.636-6.895,0.519-6.895,0.519
			c0.422,2.479-0.213,6.299-1.273,10.583c-1.501,6.085-3.88,13.193-5.274,18.84C262.382,183.092,263.19,185.458,266.939,186.385z"/>
		<path fill="#D03633" d="M274.769,175.633c-3.973,7.935-0.276,13.096,4.388,15.431c4.08,2.044,8.902,1.936,10.023-0.307
			c0.673-1.344,0.181-3.049-1.948-4.396c-1.84,1.771-4.061,2.172-5.63,1.386c-2.193-1.099-2.395-3.446-1.538-5.952
			c0.299-0.908,1.259-1.181,1.731-0.708c0.014,0.014,0.04,0.003,0.057,0.012c0.735,0.528,1.47,1.003,2.178,1.357
			c5.378,2.694,10.044,0.319,11.887-3.358c1.772-3.542,0.945-8.273-4.301-10.902C286.236,165.503,277.983,169.221,274.769,175.633z
			 M282.977,176.79c2.081-2.445,4.76-4.029,6.708-3.054c0.493,0.248,0.514,1.1,0.043,2.041c-0.772,1.542-2.894,3.234-6.244,2.563
			C282.715,178.205,282.472,177.306,282.977,176.79z"/>
	</g>
</g>
</svg>
