<?xml version="1.0" encoding="utf-8"?>
<!-- Generator: Adobe Illustrator 21.0.0, SVG Export Plug-In . SVG Version: 6.00 Build 0)  -->
<svg version="1.1" id="Layer_1" xmlns="http://www.w3.org/2000/svg" xmlns:xlink="http://www.w3.org/1999/xlink" x="0px" y="0px"
	 viewBox="0 0 1400 980" enable-background="new 0 0 1400 980" xml:space="preserve">
<g>
	<g>
		<g>
			<linearGradient id="XMLID_528_" gradientUnits="userSpaceOnUse" x1="700" y1="13.8215" x2="700" y2="984.7744">
				<stop  offset="0" style="stop-color:#577483"/>
				<stop  offset="0.4946" style="stop-color:#B1C0C9"/>
				<stop  offset="1" style="stop-color:#E0E9ED"/>
			</linearGradient>
			<rect id="XMLID_524_" y="0" fill="url(#XMLID_528_)" width="1400" height="980"/>
		</g>
	</g>
	<path fill="#FFFFFF" d="M0,0l0,980h1400V0L0,0z M28.3,88.1c0-37.8,30.6-68.4,68.4-68.4h1206.7c37.8,0,68.4,30.6,68.4,68.4v803.7
		c0,37.8-30.6,68.4-68.4,68.4H96.6c-37.8,0-68.4-30.6-68.4-68.4V88.1z"/>
	<linearGradient id="SVGID_1_" gradientUnits="userSpaceOnUse" x1="700" y1="1240.9442" x2="700" y2="222.3876">
		<stop  offset="0" style="stop-color:#577483"/>
		<stop  offset="0.4946" style="stop-color:#B1C0C9"/>
		<stop  offset="1" style="stop-color:#E0E9ED"/>
	</linearGradient>
	<polygon fill="url(#SVGID_1_)" points="1373,749 1041,709 705,448 609,448 415.7,245.3 303.3,332 218,499.7 15,601.9 15,973 
		1385,973 	"/>
	<polygon fill="#E0E9ED" points="431.5,393.1 482.5,552.1 515.5,495.6 629.5,609.2 552,703.3 488.5,696.3 563.5,771.8 724.5,749.1 
		819.9,784.9 799.4,601.8 897.6,597.6 705,448 609,448 415.7,245.3 347.5,426.1 	"/>
	<g>
		<path fill="#ECC19C" d="M787.5,363.5l-2.3,25.8c0,0,6,13.5,3.5,19.8s-8.3,15-8.3,15l-6.5,56.8l15.4,5.1l22.6-67.3l2.5-53.5
			L787.5,363.5z"/>
		<path fill="#E0E9ED" d="M942,350.5c0,0-4.4-16.7-7.8-22.5c-2.8-4.8-15.7-14.4-20.3-17.4c-25.2-17.1-42.9-23.1-42.9-23.1l-30.3,4
			l-32.3,19.3l-8.5,13.5l-9.5,8.5l-12.5,38l20.8,9.2c0,0-1.9,6.5,9,19.8c-0.7,30.2,5.7,98,5.7,98l1,32.6l95.6-17.8v-90.8
			c0,0,7.3-34.1,12.7-54.3L942,350.5z"/>
		<path fill="#CEDADD" d="M934.3,328c-2.8-4.8-15.7-14.4-20.3-17.4c-25.2-17.1-42.9-23.1-42.9-23.1l-30.3,4l-32.3,19.3l-7.8,12.4
			l54.7,23.2L831.5,323l51.3,34.7L860,372.3l-65.8-4l14.6,13.3H860l37.5,21.3l-11.9,21.7c0,0-69.3-30.5-66-15.7
			c3.3,14.7,54,73.8,54,73.8l36.4-16.9v-44.1c0,0,4.3-20.2,8.8-38.7L903,347.7l28.6,12l9.2-13.8C939.2,340.5,936.5,331.9,934.3,328z
			"/>
		<path fill="#F0D0B4" d="M858.1,242.3l5.5,5.4l7.5,35.6l11.7,11.2c0,0-36.4,43.6-54.9,6.1c0,0,4.3-7.9,4.5-10.6
			c0.2-2.8-1.8-4.1-1.8-4.1l0.5-9l9.7-29.6L858.1,242.3z"/>
		<path fill="#ECC19C" d="M871.1,283.2l-7.5-35.6l-5.5-5.4l-17.3,4.9l-9.7,29.6l-0.5,9c0,0,0.6,0.4,1.1,1.3l13.7-11.9l-1.5,40.1
			c0.6,0.1,1.3,0.2,1.9,0.3l5-40.4l13.7,35.1c10.4-6.3,18.3-15.9,18.3-15.9L871.1,283.2z"/>
		<path fill="#F5E0CD" d="M809.9,222l-4.3,15.4c0,0,2,4,2.2,6.3c0.2,2.4-4.7,17.1-4.7,17.1l2.4,1.4c0,0,6.6-2.4,7.9,0
			c1.3,2.4,1.1,7.8,1.1,7.8l2.9,5.3l-3.8,6.6l12.6,1.3l19.1-12.3v-21.9l18.4-4.7l-7.1-25.8h-41.9L809.9,222z"/>
		<path fill="#ECC19C" d="M813.3,262.3c1.3,2.4,1.1,7.8,1.1,7.8l1.3-10.4l-2-1.3l-8.3,4C805.4,262.3,812,259.9,813.3,262.3z"/>
		<polygon fill="#ECC19C" points="856.5,218.6 814.6,218.6 809.9,222 808.8,225.5 819.2,224.1 818,238 811,242.8 816.6,247.2 
			821.7,242.3 823.8,257 833.3,265.7 826.1,283.2 845.2,271 845.2,249.1 863.6,244.4 		"/>
		<path fill="#B5917C" d="M808.3,240l13.2-1.3l3.5,2c0,0-6.4-2.7-12,1.7l-3.7,0.4L808.3,240z"/>
		<polygon fill="#926D5A" points="814,243.3 821.1,242.3 816.8,244.6 815.3,244 814.9,245 		"/>
		<path fill="#CEA28B" d="M811,260.9h3.8C815.7,258.2,811,260.9,811,260.9z"/>
		<path fill="#D1B79F" d="M836.2,242c0.2,22.1-5.1,18.2-5.1,18.2l1.2,7.9l-4.8-5.8l-10.7-0.7l-2.4,1.5h-0.9c0.2,0.6,0.4,1.3,0.5,1.9
			l1.2-0.8l10.8,0.4l5,12.3c0,0-8-1.9-14.9,0.2l-2.8,4.9l12.6,1.3l19.1-12.3v-21.9l4.5-1.1l0.1-1.5L836.2,242z"/>
		<path fill="#C0A58D" d="M836.2,242c0.2,22.1-5.1,18.2-5.1,18.2l0.6,4l1.6,1.5l-1,2.4l-2.4,5.8l1.2,2.9c0,0-0.8-0.2-2.2-0.4
			l-2.8,6.8l19.1-12.3v-21.9l4.5-1.1l0.1-1.5L836.2,242z"/>
		<path fill="#C0A58D" d="M813.8,263.8c0,0.2,0.1,0.3,0.1,0.5c0,0,0,0.1,0,0.1c0,0,0,0,0,0c0,0,0,0.1,0,0.1c0,0,0,0,0,0
			c0,0,0,0.1,0,0.1c0,0,0,0,0,0c0,0.1,0,0.2,0,0.3c0,0,0,0,0,0c0,0,0,0,0,0c0,0,0,0,0,0l1-0.7l0.2-1.8l-0.8,0.5h-0.9
			c0.1,0.2,0.1,0.4,0.2,0.6C813.8,263.7,813.8,263.8,813.8,263.8z"/>
		<path fill="#58595B" d="M808,228.6c0,0,14-1.1,28.2,14.4c14.2,15.5,31.4,6.3,31.4,6.3l2.6-9l2.9-1.5l2.9-12.9c0,0-20.3-20-34-19
			c-13.7,1.1-30.5,9.2-30.5,9.2l-2-0.1l-3.8,12.3L808,228.6z"/>
		<polygon fill="#9C8156" points="838.6,457.3 845.9,457.5 851.2,444.8 863.9,444.8 871.5,452.5 895.7,444.8 903.8,457.5 
			890.9,463.3 910.5,458.7 910.5,450.7 947,460.8 951.3,496.8 937.5,502 977.6,528.6 959.3,563.1 989.4,602.3 936.6,646.4 
			841.6,598 770.5,585.3 774,528.6 807.6,498.5 798.9,472.4 830.5,466.1 		"/>
		<polygon fill="#876D47" points="921.9,580.7 962.7,541.8 946.1,529.4 910.1,550.6 849.3,545.6 810.7,502.2 773.3,540.7 
			773.3,540.7 770.5,585.3 841.6,598 936.6,646.4 989.4,602.3 984.4,595.8 943.9,591.6 		"/>
		<polygon fill="#72594B" points="792.3,485.8 772,478 765.3,497.3 765.3,505.3 761.3,513 754.3,532 758,556 780.3,545.6 784,520.3 
			782.7,508.3 786,502.2 789,498.7 		"/>
		<path fill="#414042" d="M829.9,490.5l-23.7,8.6l-85.3,80.9c0,0-5.5,11.1-0.5,20.3c0,0,7.6,42.7,6.5,49.2l10,27l-9.5,12.5l9.6,18.1
			l38.3,1.1l-11.6-33.8l5.2-16.5l-4-22.3l-4.8-31.5l90.4-61.5l18,88.4l-4.6,26.8l16.6,15.4l10.6,29.4l9.7,55.7l34-2l-12.3-70
			l-2.2-17.8l-9.4-11.8l8.5-14.8l-7-8.4l2.9-9.7l1.7-55.6l6.1-11l0.4-34.2L829.9,490.5z"/>
		<path fill="#9C8156" d="M946.6,595.7c29,6.4,88.9,33,88.9,33l-17.7-62.4c0,0-87.7-9.7-106.6-33.4c-18.9-23.7-54.3-47.1-54.3-47.1
			l-33.8,2.4l41.4,106.6c0,0,44.3,35.8,45.9,35.4c1.6-0.4-5.6-51.9-5.6-51.9s-42.2-19-45.4-37.6c-3.3-18.7-2.9-32.4-2.9-32.4
			S917.6,589.2,946.6,595.7z"/>
		<path fill="#414042" d="M745.9,696.7l-4.7,12.2l2.1,11.2l-9.8,12.7c0,0-32.7-0.3-39.8,15.8c0,0-1.1,7.1-0.7,6.8
			c0.3-0.3,26.1,5,37.3,4.1c11.2-0.9,35.5-6.9,40.1-4.3c4.5,2.6,4.3,5,4.3,5l15.5-1.9l0.7-6.6c0,0,1.7-1.5-0.6-10.8
			c-2.3-9.2-9.6-19.3-9.6-19.3l-4.1-17.8L745.9,696.7z"/>
		<polygon fill="#414042" points="889.6,749.4 913.8,736.1 938,749.4 948.7,800.1 948.7,817 959.6,829.1 959.6,843.5 913.8,843.5 
			901.3,826.7 913.8,811 907.7,800.1 901.3,789.8 		"/>
		<path fill="#F5E0CD" d="M935.2,339.9c0,0,8,7.3,9.4,13c0,0,23.6,17,32.5,40.1l12.5,18.9c0,0-2.2,15.2-14.5,26.2
			S947.6,460,947.6,460l-26.7,23l-11.1-10.2L931,449l17.9-29.1l5-4.8l-6.7-11.4c0,0-8.9-3.9-12.2-9.8c-3.3-5.9-9.2-13.1-9.2-13.1
			l-13.2-5.1c0,0,0.2-15.3,2.6-19.7C918.5,350.4,935.2,339.9,935.2,339.9z"/>
		<path fill="#ECC19C" d="M977,393c-8.9-23.1-32.5-40.1-32.5-40.1c-1.4-5.8-9.4-13-9.4-13s-16.7,10.5-19.8,16.1
			c-0.6,1.1-1.1,2.9-1.5,5l12.4-5.7l3,13.5l17,2l20,22.3l-3.5,14.3l3.5,8.3L979,417l-55,62.5l17-26.5l-27,22.5l-1.5-5.9l-2.8,3.1
			l11.1,10.2l26.7-23c0,0,15.1-10.9,27.4-21.8s14.5-26.2,14.5-26.2L977,393z"/>
		
			<rect x="925.3" y="433.1" transform="matrix(-0.9906 0.137 -0.137 -0.9906 1937.0861 1140.1682)" fill="#414042" width="8" height="407.2"/>
		<path fill="#72594B" d="M895.6,475.9l-4.4-1.9l6.4-7.6l10.7-0.2l8.9-3c0,0,14.2,8,14.3,15.9c0.1,7.9-1.2,10.9-1.2,10.9l-8.2-0.9
			l-5.4,12.3l-16.4,0.9l-1.7-5.1l-3.3-4.5l0.4-4.4l-3.8-5.8L895.6,475.9z"/>
	</g>
	<g>
		<path fill="#F8DB94" d="M1137,749.1l40-102.8c0,0,176,44.3,208,231.5l-144,50.5L1137,749.1z"/>
		<path fill="#F6C785" d="M973,862.4c0,0,58-158.7,204-216.1c0,0,134,70.6,164,254.6C1341,901,1077,931.9,973,862.4z"/>
		<path fill="#DD8C32" d="M1232.4,689l-13.9,47.2c0,0-62.9-36.6-92.9-25.2s100.5,132.6,100.5,132.6l-183-97.6
			c-49,58.5-70.1,116.5-70.1,116.5c104,69.4,368,38.6,368,38.6C1323.9,796.1,1273,728.1,1232.4,689z"/>
		<path fill="#DD8C32" d="M1232.4,689l-13.9,47.2c0,0-62.9-36.6-92.9-25.2s100.5,132.6,100.5,132.6l-183-97.6
			c-49,58.5-70.1,116.5-70.1,116.5c104,69.4,368,38.6,368,38.6C1323.9,796.1,1273,728.1,1232.4,689z"/>
		<circle fill="#EAB97E" cx="1157" cy="823.4" r="95"/>
		<path fill="#EAB97E" d="M1232.4,689l-13.9,47.2c0,0-62.9-36.6-92.9-25.2s100.5,132.6,100.5,132.6l-183-97.6
			c-49,58.5-70.1,116.5-70.1,116.5c104,69.4,368,38.6,368,38.6C1323.9,796.1,1273,728.1,1232.4,689z"/>
		<path fill="#C6976B" d="M1252,823.4c0-52.5-42.5-95-95-95c-10.6,0-20.7,1.7-30.2,4.9c21.8,38.2,99.3,110.3,99.3,110.3l-145-77.3
			c-12,15.9-19.1,35.7-19.1,57.2c0,32.7,16.6,61.6,41.7,78.7c32.3,3.9,65.7,5.5,96.9,5.7C1231.1,892,1252,860.1,1252,823.4z"/>
		<circle fill="#F6C785" cx="1157" cy="823.4" r="82.2"/>
		<path fill="#C6976B" d="M1148,905.1c2.8,0.3,5.7,0.5,8.7,0.5V741.2c-2.9,0-5.8,0.2-8.7,0.5V905.1z"/>
	</g>
	<polygon fill="#BC9F77" points="593.5,750.3 824.2,739.7 883.3,784.9 963.4,818.3 993.8,854 1141.6,888.1 1236.3,874.9 
		1338.2,888.1 1376.3,862.4 1395.6,896.5 1387.1,963.5 381.6,963.5 381.6,851.6 357.3,797.3 456.6,710.9 	"/>
	<g>
		<polygon fill="#9C8156" points="622.5,797.3 483,749.1 357.3,797.3 357.3,797.3 381.6,851.6 381.6,963.5 1085.6,963.5 1137,927 
			1011,873 794.3,896.5 754.3,873 824.9,767 		"/>
		<polygon fill="#9C8156" points="1387.1,963.5 1395.6,896.5 1376.3,862.4 1338.2,888.1 1284.4,881.1 1261,897 1218.6,963.5 		"/>
		<polygon fill="#89704D" points="1093.2,958.2 959.6,913 833.3,943.9 652.1,843.5 631.1,907.8 573.8,913 526.7,798.4 419.3,773.6 
			442.7,862.4 381.6,911 381.6,963.5 1085.6,963.5 		"/>
	</g>
	<path fill="#FFFFFF" d="M0,0l0,980h1400V0L0,0z M28.3,88.1c0-37.8,30.6-68.4,68.4-68.4h1206.7c37.8,0,68.4,30.6,68.4,68.4v803.7
		c0,37.8-30.6,68.4-68.4,68.4H96.6c-37.8,0-68.4-30.6-68.4-68.4V88.1z"/>
</g>
</svg>
