<?xml version="1.0"?>
<svg xmlns:rdf="http://www.w3.org/1999/02/22-rdf-syntax-ns#" xmlns="http://www.w3.org/2000/svg" xmlns:cc="http://creativecommons.org/ns#" xmlns:xlink="http://www.w3.org/1999/xlink" xmlns:dc="http://purl.org/dc/elements/1.1/" id="svg2" viewBox="0 0 906.34 312.11" version="1.1">
 <defs id="defs4">
  <filter id="filter3683" height="2.2817" width="1.018" color-interpolation-filters="sRGB" y="-.64084" x="-.0089942">
   <feGaussianBlur id="feGaussianBlur3685" stdDeviation="3.0695829"/>
  </filter>
  <linearGradient id="linearGradient3776" y2="425.13" gradientUnits="userSpaceOnUse" x2="445.84" y1="411.57" x1="445.84">
   <stop id="stop3740" stop-color="#666" offset="0"/>
   <stop id="stop3742" stop-color="#8a0" offset="1"/>
  </linearGradient>
 </defs>
 <g id="layer1" transform="translate(-69.913 -610.36)">
  <g id="g3746">
   <path id="rect2844" d="m142.98 754.9h790.35l-1.0161 108.27-163.04 8.6369-435.36-3.5564-149.22-13.717-15.091 1.0161-27.134-4.0644 0.50805-96.582z" fill-opacity=".99608"/>
   <g id="g2881" fill-opacity=".99608" transform="translate(-1.0161 -3.0483)">
    <path id="path2848" d="m259.38 532.14c0 3.9682-3.2168 7.185-7.185 7.185-3.9681 0-7.185-3.2168-7.185-7.185 0-3.9681 3.2168-7.185 7.185-7.185 3.9681 0 7.185 3.2168 7.185 7.185z" transform="matrix(9.75 0 0 9.75 -2206.3 -4348.3)" fill="#1a1a1a"/>
    <path id="path2846" d="m259.38 532.14c0 3.9682-3.2168 7.185-7.185 7.185-3.9681 0-7.185-3.2168-7.185-7.185 0-3.9681 3.2168-7.185 7.185-7.185 3.9681 0 7.185 3.2168 7.185 7.185z" transform="matrix(7.6 0 0 7.6 -1664.1 -3204.2)" fill="#800000"/>
    <path id="path2873" d="m252.56 483.62c-26.587 0-48.156 21.57-48.156 48.156 0 26.587 21.57 48.125 48.156 48.125 26.587 0 48.125-21.538 48.125-48.125s-21.538-48.156-48.125-48.156zm7.1875 32.719c1.8849 0 3.4062 1.5214 3.4062 3.4062 0 1.8849-1.5214 3.4062-3.4062 3.4062-1.8849 0-3.4375-1.5214-3.4375-3.4062 0-1.8849 1.5526-3.4062 3.4375-3.4062zm-15.469 0.34375c1.8849 0 3.4062 1.5214 3.4062 3.4062 0 1.8849-1.5214 3.4375-3.4062 3.4375-1.8849 0-3.4062-1.5526-3.4062-3.4375s1.5214-3.4062 3.4062-3.4062zm8.2812 7.9062c3.9681 0 7.1875 3.2194 7.1875 7.1875s-3.2194 7.1875-7.1875 7.1875-7.1875-3.2194-7.1875-7.1875 3.2194-7.1875 7.1875-7.1875zm13.469 6.4688c1.8849 0 3.4062 1.5214 3.4062 3.4062 0 1.8849-1.5214 3.4062-3.4062 3.4062-1.8849 0-3.4062-1.5214-3.4062-3.4062 0-1.8849 1.5214-3.4062 3.4062-3.4062zm-25.15 1.44c1.8849 0 3.4062 1.5214 3.4062 3.4062 0 1.8849-1.5214 3.4062-3.4062 3.4062-1.8849 0-3.4062-1.5214-3.4062-3.4062 0-1.8849 1.5214-3.4062 3.4062-3.4062zm12.219 8.625c1.8849 0 3.4062 1.5214 3.4062 3.4062 0 1.8849-1.5214 3.4062-3.4062 3.4062-1.8849 0-3.4062-1.5214-3.4062-3.4062 0-1.8849 1.5214-3.4062 3.4062-3.4062z" transform="translate(0 308.27)" fill="#999"/>
   </g>
   <path id="rect2869" d="m435.91 302.09c-113.77 0.32688-134.31 16.79-207.28 46.75-14.75 6.0384-35.954 16.148-46.781 21.406l-1.0312-0.0312-93.156 8.875s-3.0993 25.88-3.9375 38.812c-0.83824 12.933-1.0938 38.781-1.0938 38.781l-11.844 5.75 7.7188 37.375-2.5938 6.4688 10.312 25.125 82.812 15.375c-0.005-0.39842-0.0312-0.78785-0.0312-1.1875 0-49.8 36.846-90.188 82.281-90.188s82.25 40.387 82.25 90.188c0 4.291-0.28365 8.4938-0.8125 12.625l4.625 0.3125s197.92-0.0625 315.94 3.5c34.26 1.0342 75.143 0.43686 115.91-0.9375-2.3263-11.451-2.623-23.659-0.46875-36.062 8.5218-49.066 51.735-82.525 96.5-74.75 44.544 7.7365 73.858 53.394 65.75 102.19 22.648-1.5796 36.844-2.7188 36.844-2.7188s-3.0556-7.5206-2.7188-23.312c0.33679-15.792 11.246-24.773 11.156-39.562-0.0922-14.808-18.844-16.531-18.844-16.531l1.7812-28.75s-4.0958-13.19-38.844-21.594c-34.748-8.4034-169.62-28.812-169.62-28.812l-22-0.8125c-21.116-12.329-60.177-35.175-72.812-41.531-47.303-27.412-71.641-44.526-220-46.75h-0.00005z" fill-opacity=".99608" transform="translate(0 308.27)" fill="#8a0"/>
   <path id="path2872" d="m949.85 591.77c0 3.1745-183.36 5.748-409.54 5.748s-409.54-2.5734-409.54-5.748c0-3.1745 183.36-5.748 409.54-5.748s409.54 2.5734 409.54 5.748z" fill-opacity=".99608" transform="matrix(1 0 0 1.875 0 -211.69)" filter="url(#filter3683)"/>
   <path id="path2831" d="m477.19 311c-93.882-5.4468-177.65 24.358-231.56 58.281l13.375 26.875 433.59 6.5c-36.1-44.16-115.61-85.87-215.4-91.66z" fill-opacity=".99608" transform="translate(0 308.27)" fill="#4d4d4d"/>
   <rect id="rect2840" opacity=".4" fill-opacity=".99608" transform="matrix(.99091 -.13451 .20185 .97942 0 0)" height="85.418" width="1.8412" y="672.24" x="274.26" fill="#8a0"/>
   <rect id="rect2864" opacity=".4" transform="translate(0 308.27)" fill-opacity=".99608" rx="7" ry="7" height="28.74" width="40.954" y="424.36" x="156.63" fill="#8a0"/>
   <path id="path2882" d="m952.78 439.31c-8.6377 0.23681-23.003 3.5864-25.25 9.0312-3.0306 7.3436 16.411 23.256 22.75 23.031 6.1337-0.21733 6.6814-9.1175 7.875-13.938l1.0312-17.031c-0.10934-0.0972-0.22073-0.16558-0.34375-0.25-0.94615-0.6493-3.1833-0.92269-6.0625-0.84375z" fill-opacity=".99608" transform="translate(0 308.27)" fill="#ccc"/>
   <path id="path2890" d="m86.625 388.03c-0.98331 8.7102-2.3728 21.645-2.9062 29.875-0.61149 9.4344-0.91294 25.555-1.0312 33.688 13.073-1.227 24.414-3.8458 27.625-7.25 6.5346-6.9272-9.4522-38.872-23.688-56.312z" fill-opacity=".99608" transform="translate(0 308.27)" fill="#ccc"/>
   <path id="path2896" d="m83.594 419.97c-0.53157 9.577-0.79594 24.043-0.90625 31.625 13.073-1.227 24.414-3.8458 27.625-7.25 3.2821-3.4793 0.88039-13.281-4.125-24.375h-22.594z" fill-opacity=".99608" transform="translate(0 308.27)" fill="#a00"/>
   <path id="path2917" opacity=".4" d="m692.67 403.76c21.177 21.781 20.077 40.599 20.077 72.695 0 29.952-6.8635 58.194-19.005 83.039" transform="translate(0 308.27)" stroke="#000" stroke-width="3" fill="none"/>
   <path id="path2903" opacity=".4" d="m465.12 558.74c-4.016-4.5815-7.8548-9.4004-11.496-14.453-32.603-45.236-47.474-109.64-28.933-146.4" transform="translate(0 308.27)" stroke="#000" stroke-width="3" fill="none"/>
   <path id="path2849" d="m179.2 370.77s32.469-15.746 47.842-22.571c15.807-7.0181 82.627-31.614 82.627-31.614l0.71849 1.437s-58.349 25.984-68.976 30.598c-10.313 4.4778-55.324 27.6-55.324 27.6l-6.8873-5.4504z" transform="translate(0 308.27)" fill="#4d4d4d"/>
   <path id="path2855" d="m740.73 390.99s-45.092-24.248-73.287-39.877c-48.347-26.799-89.776-36.32-89.776-36.32l-3.5925 4.6702s63.228 29.099 79.394 40.236 54.606 39.877 54.606 39.877 5.4604 0.83978 16.166-1.437c11.44-2.433 15.771-7.1488 16.489-7.1488z" transform="translate(0 308.27)" fill="#4d4d4d"/>
   <path id="path2857" d="m102.39 412.15s234.11 3.832 350.81 7.185 349.37 12.933 349.37 12.933" transform="translate(0 308.27)" stroke="#000" stroke-width="1px" fill="none"/>
   <path id="path2866" d="m303.18 468.78c85.752 2.6838 198.27 5.1574 214.85 5.1574 22.992 0 259.38 5.748 259.38 5.748" transform="translate(0 308.27)" stroke="#000" stroke-width="1px" fill="none"/>
   <path id="path2859" d="m82.627 458.13s99.871 5.0295 130.05 7.185" transform="translate(0 308.27)" stroke="#000" stroke-width="1px" fill="none"/>
   <path id="path2868" d="m70.413 466.04s29.448 3.8399 52.45 5.0295c20.821 1.0768 61.072 2.1555 61.072 2.1555" transform="translate(0 308.27)" stroke="#666" stroke-width="1px" fill="none"/>
   <path id="path2870" d="m317.58 475.38s117.11 2.9584 142.98 3.5925c29.458 0.72204 316.14 5.0295 316.14 5.0295" transform="translate(0 308.27)" stroke="#000" stroke-width="1px" fill="none"/>
   <g id="g2886" fill-opacity=".99608" transform="translate(599.5 -5.0805)">
    <path id="path2888" d="m259.38 532.14c0 3.9682-3.2168 7.185-7.185 7.185-3.9681 0-7.185-3.2168-7.185-7.185 0-3.9681 3.2168-7.185 7.185-7.185 3.9681 0 7.185 3.2168 7.185 7.185z" transform="matrix(9.75 0 0 9.75 -2206.3 -4348.3)" fill="#1a1a1a"/>
    <path id="path2891" d="m259.38 532.14c0 3.9682-3.2168 7.185-7.185 7.185-3.9681 0-7.185-3.2168-7.185-7.185 0-3.9681 3.2168-7.185 7.185-7.185 3.9681 0 7.185 3.2168 7.185 7.185z" transform="matrix(7.6 0 0 7.6 -1664.1 -3204.2)" fill="#800000"/>
    <path id="path2893" d="m252.56 483.62c-26.587 0-48.156 21.57-48.156 48.156 0 26.587 21.57 48.125 48.156 48.125 26.587 0 48.125-21.538 48.125-48.125s-21.538-48.156-48.125-48.156zm7.1875 32.719c1.8849 0 3.4062 1.5214 3.4062 3.4062 0 1.8849-1.5214 3.4062-3.4062 3.4062-1.8849 0-3.4375-1.5214-3.4375-3.4062 0-1.8849 1.5526-3.4062 3.4375-3.4062zm-15.469 0.34375c1.8849 0 3.4062 1.5214 3.4062 3.4062 0 1.8849-1.5214 3.4375-3.4062 3.4375-1.8849 0-3.4062-1.5526-3.4062-3.4375s1.5214-3.4062 3.4062-3.4062zm8.2812 7.9062c3.9681 0 7.1875 3.2194 7.1875 7.1875s-3.2194 7.1875-7.1875 7.1875-7.1875-3.2194-7.1875-7.1875 3.2194-7.1875 7.1875-7.1875zm13.469 6.4688c1.8849 0 3.4062 1.5214 3.4062 3.4062 0 1.8849-1.5214 3.4062-3.4062 3.4062-1.8849 0-3.4062-1.5214-3.4062-3.4062 0-1.8849 1.5214-3.4062 3.4062-3.4062zm-25.15 1.44c1.8849 0 3.4062 1.5214 3.4062 3.4062 0 1.8849-1.5214 3.4062-3.4062 3.4062-1.8849 0-3.4062-1.5214-3.4062-3.4062 0-1.8849 1.5214-3.4062 3.4062-3.4062zm12.219 8.625c1.8849 0 3.4062 1.5214 3.4062 3.4062 0 1.8849-1.5214 3.4062-3.4062 3.4062-1.8849 0-3.4062-1.5214-3.4062-3.4062 0-1.8849 1.5214-3.4062 3.4062-3.4062z" transform="translate(0 308.27)" fill="#999"/>
   </g>
   <path id="path3687" d="m462.71 417.54c0 4.1666-6.9966 7.5442-15.627 7.5442-8.6307 0-15.627-3.3776-15.627-7.5442s6.9966-7.5442 15.627-7.5442c8.6307 0 15.627 3.3777 15.627 7.5442z" transform="matrix(.98851 0 0 1.1429 6.9108 250.42)" fill="url(#linearGradient3776)"/>
   <rect id="rect3711" fill-opacity=".99608" rx="4" ry="4" height="8.2627" width="47.061" y="723.38" x="425.17" fill="#668000"/>
  </g>
 </g>
 <metadata>
  <rdf:RDF>
   <cc:Work>
    <dc:format>image/svg+xml</dc:format>
    <dc:type rdf:resource="http://purl.org/dc/dcmitype/StillImage"/>
    <cc:license rdf:resource="http://creativecommons.org/licenses/publicdomain/"/>
    <dc:publisher>
     <cc:Agent rdf:about="http://openclipart.org/">
      <dc:title>Openclipart</dc:title>
     </cc:Agent>
    </dc:publisher>
   </cc:Work>
   <cc:License rdf:about="http://creativecommons.org/licenses/publicdomain/">
    <cc:permits rdf:resource="http://creativecommons.org/ns#Reproduction"/>
    <cc:permits rdf:resource="http://creativecommons.org/ns#Distribution"/>
    <cc:permits rdf:resource="http://creativecommons.org/ns#DerivativeWorks"/>
   </cc:License>
  </rdf:RDF>
 </metadata>
</svg>
