<?xml version="1.0" encoding="utf-8"?>
<!-- Generator: Adobe Illustrator 14.0.0, SVG Export Plug-In . SVG Version: 6.00 Build 43363)  -->
<!DOCTYPE svg PUBLIC "-//W3C//DTD SVG 1.1//EN" "http://www.w3.org/Graphics/SVG/1.1/DTD/svg11.dtd">
<svg version="1.1" id="Layer_1" xmlns="http://www.w3.org/2000/svg" xmlns:xlink="http://www.w3.org/1999/xlink" x="0px" y="0px"
	 width="561.538px" height="1371.375px" viewBox="0 0 561.538 1371.375" enable-background="new 0 0 561.538 1371.375"
	 xml:space="preserve">
<g>
	<path d="M459.367,204.21c-8.855-20.937-21.534-39.745-37.687-55.896c-16.15-16.151-34.959-28.831-55.896-37.686
		c-21.682-9.168-44.717-13.826-68.458-13.826s-46.766,4.658-68.448,13.826c-20.946,8.855-39.745,21.535-55.896,37.686
		s-28.84,34.959-37.696,55.896c-9.168,21.682-13.816,44.717-13.816,68.458c0,34.361,9.924,67.664,28.703,96.288
		c0.235,0.363,0.206,0.843-0.069,1.167c-0.196,0.235-0.471,0.353-0.755,0.353c-0.128,0-0.265-0.02-0.383-0.078
		c-4.393-1.874-8.287-3.992-11.571-6.286c-2.579-1.804-5.55-2.765-8.59-2.765c-5.295,0-9.993,2.922-12.277,7.609
		c-2.403,4.933-1.628,10.689,2.069,15.386c1.02,1.294,2.138,2.579,3.344,3.824c0.255,0.265,0.343,0.638,0.225,0.991
		c-1.804,5.551,0.167,11.65,5.011,15.553c1.98,1.579,4.442,3.217,7.306,4.854c0.313,0.176,0.51,0.51,0.5,0.872
		c-0.137,6.061,3.481,11.13,9.698,13.582c0.275,0.108,0.56,0.216,0.834,0.314c0.333,0.127,0.569,0.412,0.628,0.745
		c0.931,5.197,4.766,9.316,10.257,11.003c0.638,0.206,1.305,0.392,1.971,0.579c0.304,0.088,0.549,0.304,0.657,0.608
		c2.04,5.453,7.355,8.973,13.553,8.973c0.471,0,0.951-0.02,1.441-0.059c13.199-1.039,28.164-7.374,41.05-17.396
		c0.176-0.137,0.392-0.216,0.607-0.216c0.147,0,0.304,0.04,0.451,0.118c24.889,12.974,52.964,19.838,81.196,19.838
		c23.741,0,46.776-4.648,68.458-13.817c20.937-8.854,39.745-21.534,55.896-37.685c16.152-16.151,28.831-34.959,37.687-55.906
		c9.169-21.682,13.826-44.707,13.826-68.448S468.536,225.892,459.367,204.21z M221.009,196.088l-4.827,7.266l3.249,8.095
		c0.191,0.478,0.096,1.024-0.249,1.407c-0.261,0.291-0.63,0.451-1.009,0.451c-0.121,0-0.244-0.016-0.363-0.051l-8.401-2.344
		l-6.694,5.59c-0.248,0.207-0.557,0.314-0.869,0.314c-0.186,0-0.371-0.037-0.547-0.115c-0.472-0.209-0.784-0.668-0.806-1.183
		l-0.365-8.714l-7.386-4.639c-0.438-0.275-0.68-0.772-0.627-1.286c0.053-0.513,0.392-0.95,0.875-1.131l8.175-3.04l2.13-8.459
		c0.126-0.499,0.525-0.884,1.029-0.993c0.094-0.02,0.189-0.029,0.284-0.029c0.408,0,0.802,0.186,1.062,0.513l5.418,6.836
		l8.702-0.589c0.03-0.002,0.061-0.003,0.091-0.003c0.48,0,0.928,0.256,1.172,0.676C221.311,195.105,221.294,195.659,221.009,196.088
		z M408.742,327.502l-7.157,4.986l0.052,8.723c0.002,0.515-0.287,0.988-0.748,1.218c-0.35,0.175-0.752,0.188-1.104,0.049
		c-0.112-0.044-0.222-0.104-0.319-0.18l-6.955-5.264l-8.278,2.743c-0.307,0.102-0.634,0.088-0.924-0.026
		c-0.173-0.068-0.332-0.171-0.467-0.308c-0.362-0.368-0.484-0.909-0.315-1.396l2.858-8.239l-5.168-7.026
		c-0.306-0.417-0.349-0.968-0.11-1.426c0.236-0.458,0.713-0.74,1.229-0.731l8.72,0.172l5.086-7.087
		c0.301-0.418,0.813-0.629,1.322-0.546c0.095,0.016,0.187,0.042,0.275,0.077c0.38,0.149,0.678,0.467,0.799,0.866l2.531,8.348
		l8.311,2.646c0.029,0.009,0.058,0.019,0.086,0.031c0.447,0.176,0.769,0.578,0.842,1.059
		C409.383,326.697,409.165,327.207,408.742,327.502z M425.958,255.464l-4.827,7.266l3.249,8.095
		c0.191,0.478,0.096,1.024-0.249,1.407c-0.261,0.291-0.63,0.451-1.009,0.451c-0.121,0-0.244-0.016-0.363-0.051l-8.401-2.344
		l-6.694,5.59c-0.248,0.207-0.557,0.314-0.869,0.314c-0.186,0-0.371-0.037-0.547-0.115c-0.472-0.209-0.784-0.668-0.806-1.183
		l-0.365-8.714l-7.386-4.639c-0.438-0.275-0.68-0.772-0.627-1.286c0.053-0.513,0.392-0.95,0.875-1.131l8.175-3.04l2.13-8.459
		c0.126-0.499,0.525-0.884,1.029-0.993c0.094-0.02,0.189-0.029,0.284-0.029c0.408,0,0.802,0.186,1.062,0.513l5.418,6.836
		l8.702-0.589c0.03-0.002,0.061-0.003,0.091-0.003c0.48,0,0.928,0.256,1.172,0.676C426.26,254.48,426.244,255.034,425.958,255.464z"
		/>
	<path fill="#1D1714" d="M427.369,189.329c0,0.35-0.13,0.63-0.39,0.88l-10.42,9.99c-1.21,0.54-2.51,1.11-3.82,1.41
		c0.32-0.94,0.49-2.07,0.48-3.24l11.16-10.68c0.17-0.17,0.58-0.33,1.13-0.33c0.54,0,0.979,0.16,1.13,0.31
		C427.009,188.039,427.379,188.718,427.369,189.329z M335.199,203.548c0.79-0.21,1.81-0.48,2.32-0.69
		c-0.31-0.98-1.89-2.28-6.36-2.28c-0.31,0-0.62-0.01-0.93-0.05c-0.04,0-0.08,0-0.12,0c-1.23,0-2.97,0.59-4.65,1.15
		c-1.72,0.58-3.34,1.13-4.62,1.13c-1.44,0-2.38-0.75-2.57-2.06c-0.15-0.99,0.79-1.54,2.85-2.73c1.75-1.02,5.39-3.12,5.17-4.38
		c-0.25-0.73-0.73-1.23-1.54-1.6c-0.45-0.16-0.85-0.24-1.22-0.24c-0.51,0-0.97,0.14-1.4,0.43c-3.02,1.99-6.06,3.94-8.37,5.41
		c-1.34,0.85-1.57,1.44-1.8,2.01l-0.04,0.11c-0.44,2.14-0.82,5.57-1.16,8.6c-0.38,3.39-0.7,6.32-1.08,7.44
		c-0.42,1.25-1.66,2.54-2.85,3.8c-0.8,0.84-2.13,2.24-2.17,2.76c0.17,0.17,0.33,0.22,0.63,0.22c0.27,0,0.6-0.04,0.98-0.1
		c0.52-0.08,1.17-0.17,1.92-0.17c1.41,0,2.82,0.35,4.28,1.06c0.84,0.4,1.75,0.6,2.79,0.6c1.21,0,2.46-0.26,3.77-0.53
		c1.42-0.3,2.88-0.6,4.4-0.6c1.1,0,2.1,0.16,3.06,0.48c0.65,0.21,1.29,0.43,1.91,0.65c2.26,0.79,4.4,1.53,5.87,1.53
		c1.14,0,1.52-0.44,1.75-0.91c0.23-0.46,0.15-1.02-0.26-1.68c-1.15-1.86-4.35-3.63-6.59-3.63c-3.47,0-3.78-2.42-3.93-3.59
		c-0.01-0.11-0.03-0.24-0.05-0.36c-0.33,0.03-0.82,0.11-1.33,0.2c-0.96,0.17-2.17,0.38-3.35,0.38c-1.15,0-2.1-0.19-2.9-0.61
		c-0.24,0.49-0.51,1.17-0.63,2c-0.12,0.68-0.69,1.18-1.37,1.18c-0.5,0-0.96-0.29-1.19-0.75c-1.21-2.43-1.28-5.08-0.2-7.67
		c1.17-2.8,3.71-5.31,6.17-6.12c0.15-0.05,0.3-0.07,0.45-0.07c0.5,0,0.95,0.28,1.18,0.73c0.25,0.5,0.2,1.12-0.16,1.61
		c-1.22,1.56-2.09,3.55-2.5,4.69c0.79,0.08,1.95,0.15,3.31,0.15c1.5,0,2.93-0.09,4.25-0.28c1.29-0.18,1.53-0.47,1.55-0.5
		c0.07-0.1-0.02-0.54-0.08-0.83c-0.18-0.87-0.44-2.19,0.73-3.37C330.369,204.818,332.939,204.148,335.199,203.548z M301.749,231.688
		l0.05,0.02c0.86,0.4,1.51,0.59,1.99,0.59c0.91,0,1.44-0.77,2.85-3.14l0.08-0.15c1.01-1.7,0.92-2.21,0.89-2.3
		c-0.05-0.16-0.55-0.38-0.95-0.56l-0.2-0.09c-0.08-0.03-0.15-0.05-0.21-0.05c-0.35,0-0.86,0.65-1.23,1.12
		c-0.21,0.27-0.43,0.55-0.66,0.77l-0.14,0.14c-0.45,0.47-0.91,0.94-1.65,0.94c-0.71,0-1.31-0.49-1.84-1.02
		c-0.37-0.37-0.55-0.37-0.61-0.37c-0.29,0-0.9,0.3-2.2,1.73c-0.08,0.08-0.12,0.14-0.14,0.17
		C298.069,229.999,300.099,230.928,301.749,231.688z M294.869,225.888c1.98-0.92,8.28-9.85,8.28-15.35c0-0.29,0.14-0.57,0.36-0.76
		c0.18-0.16,0.42-0.24,0.66-0.24c0.05,0,0.1,0,0.15,0.01c0.05,0,0.24-0.08,0.51-0.46c1.09-1.51,1.76-5.06,1.84-6.92
		c-0.42,0.28-0.83,0.54-1.22,0.8l-0.86,0.56c-6.85,4.28-14.92,8.73-22.14,12.2c-1.49,0.73-2.63,1.88-3.12,2.38
		c-0.06,0.06-0.11,0.11-0.15,0.16c-4.94,5.6-4.43,6.94-4.43,6.95c0.05,0.04,0.1,0.08,0.23,0.08c0.74,0,2.12-0.95,3.22-1.71
		c1.45-1,2.82-1.95,4.05-1.95c0.57,0,1.08,0.21,1.47,0.6c1.35,1.35,0.23,3.26-0.66,4.8c-0.47,0.8-1.18,2.01-1.04,2.47
		c0.03,0.09,0.13,0.18,0.3,0.26c0.19,0.09,0.38,0.14,0.57,0.14c1.74,0,4.03-3.32,5.71-5.74c1.81-2.61,3.01-4.33,4.43-4.33
		c0.45,0,0.87,0.18,1.2,0.51c1.5,1.5,1.08,3.36,0.81,4.59C294.969,225.238,294.879,225.648,294.869,225.888z M302.889,196.588
		l-3.76,2.61c-12,5.47-15.79,6.29-19.77,6.45c-8.61,0.69-16.29,7.67-17.61,11.24c-0.24,0.65-0.26,1.15-0.06,1.35
		c0,0,0.16,0.12,0.75,0.12c4.99,0,22.66-8.21,37.73-17.44c0.5-0.31,0.99-0.61,1.48-0.92c2.03-1.35,4.64-3.01,7.39-4.77
		c10.52-6.7,28.12-17.91,28.53-21.75c0.02-0.14-0.01-0.2-0.05-0.25c-0.08-0.04-0.38-0.14-1.16-0.14c-3.99,0-14.07,2.72-20.1,8.14
		C313.929,185.789,309.259,191.718,302.889,196.588z M278.819,199.488c15.48-2.2,27.09-14.29,31.49-22.43l-6.48-6.24
		c-5.7,7.57-15.79,15.98-28.08,18.34L278.819,199.488z M298.449,165.648l-41.62-40.05l17.03,57.21
		C287.019,179.358,295.499,169.568,298.449,165.648z M146.729,298.658c0.11,0.11,0.34,0.24,0.47,0.25c0.36-0.04,0.71-0.06,1.06-0.06
		c6.23,0,9.36,6,9.61,10.28c0.04,0.07,0.14,0.17,0.22,0.22c0.81-0.18,1.56-0.27,2.24-0.27c2.93,0,4.83,1.8,4.83,4.59
		c0,1.88,2.89,3,5.41,3.77c2.81,0.86,4.79,4.9,4.32,8.78c0.01,0.1,0.1,0.31,0.2,0.44c0.3-0.02,0.6-0.03,0.88-0.03
		c6.73,0,6.73,5.88,6.73,8.39c0,3.16,3.7,7.42,7.65,8.85c0.05-0.04,0.11-0.11,0.13-0.16c-0.43-2.34-0.45-5.65-0.47-9.15
		c-0.04-5.11-0.08-11.48-1.75-13.15c-1.42-1.42-4.43-2.17-7.34-2.89c-2.44-0.61-4.75-1.19-6.32-2.19c-0.58-0.37-0.87-1.04-0.77-1.79
		s0.61-1.63,1.39-1.88c0.77-0.24,1.42-0.61,1.99-0.94c0.65-0.37,1.16-0.67,1.72-0.67c0.44,0,1.61-0.33,2.87-1.24
		c-0.99-0.35-2.44-0.65-3.69-0.81c-0.22-0.02-0.42-0.12-0.58-0.28c-1.04-1.04-2.17-3.83-2.3-4.15c-0.05-0.11-0.07-0.24-0.07-0.37
		c0-0.29,0.08-0.59,0.17-0.93c0.23-0.87,0.52-2-0.19-3.27c-0.04,0.1-0.08,0.2-0.12,0.3c-0.54,1.29-1.2,2.9-2.68,3.64
		c-0.9,0.45-1.66,1.69-1.86,3.03c-0.14,0.96-0.99,1.72-1.93,1.72c-0.66,0-1.24-0.37-1.55-0.99c-0.99-1.92-1.19-4.68-1.19-8.23
		c0-5.52-6.32-8.49-11.62-10l-1.87-0.54c-4.46-1.28-8.7-2.5-11.81-2.99C144.239,289.188,146.869,294.568,146.729,298.658z
		 M218.599,377.289c-1.97,1.37-3.12,2.93-3.51,4.75c-0.64,2.98,0.72,6.88,4.04,11.61c0.35,0.5,0.35,1.18,0.02,1.82
		c-0.39,0.73-1.11,1.21-1.85,1.21c-0.21,0-0.41-0.04-0.62-0.11c-3.43-1.29-6.8-6.04-7.99-9.93c-5.18,3.12-13.57,4.83-23.87,4.83
		c-15.61,0-38.33-4.23-55.3-16.08c-0.22-0.15-0.41-0.23-0.56-0.27c0.06,0.16,0.18,0.4,0.45,0.73c3.85,4.9,11.44,11.29,21.19,14.53
		c1.94,0.64,3.04,1.74,2.86,2.87c-0.12,0.71-0.74,1.57-3.06,1.57c-5.04,0-10.77-0.52-14.6-1.33c-0.13-0.03-0.24-0.04-0.35-0.04
		c-0.06,0-0.11,0-0.15,0.01c0.07,0.12,0.21,0.3,0.49,0.53c5.87,4.7,18.37,10.28,26.74,11.94c1.37,0.27,2.3,1.16,2.31,2.19
		c0.01,0.76-0.52,1.68-2.02,2.01c-2.62,0.57-5.95,0.88-9.37,0.88c-1.24,0-2.44-0.04-3.57-0.12c-0.11-0.01-0.21-0.01-0.31-0.01
		c-0.2,0-0.37,0.01-0.51,0.04c0.16,0.09,0.37,0.19,0.66,0.3c4.18,1.65,11.48,3.31,18.33,3.31c0.92,0,1.82-0.03,2.66-0.09
		c0.17-0.01,0.33-0.02,0.49-0.02c1.55,0,2.61,0.58,2.85,1.55c0.16,0.69-0.04,1.72-1.98,2.7c-2.63,1.35-6.77,3.09-11.53,3.78
		c-0.36,0.05-0.59,0.14-0.73,0.22c0.12,0.08,0.32,0.18,0.64,0.28c4.33,1.34,8.84,2.08,12.69,2.08c0.77,0,1.53-0.03,2.24-0.08
		c0.15-0.02,0.29-0.02,0.42-0.02c1.33,0,2.34,0.58,2.63,1.51c0.13,0.44,0.28,1.58-1.32,2.67c-1.37,0.94-2.89,1.86-4.52,2.74
		c-0.37,0.19-0.56,0.42-0.64,0.56c0.1,0.03,0.3,0.08,0.64,0.08c0.1,0,0.21,0,0.33-0.01c4.77-0.38,29.62-3.69,50.95-32.27
		c0.19-0.25,0.49-0.4,0.8-0.4c3.16,0,5.52-0.9,7.02-2.67c1.53-1.82,1.88-4.22,1.69-6.03
		C226.429,387.499,221.579,382.968,218.599,377.289z M259.669,349.668c-0.17-0.1-0.35-0.21-0.53-0.32l-0.38-0.24
		c-0.56-0.35-1.15-0.71-1.68-1.18l-21.67,20.75c-0.19,0.18-0.44,0.28-0.7,0.28c-0.11,0-0.23-0.02-0.35-0.07
		c-0.36-0.13-0.61-0.46-0.64-0.84c-0.03-0.34-0.06-0.69-0.09-1.06c-0.17-2.07-0.51-6.35-1.65-6.84c-0.4,0.48-0.61,2.65-0.74,3.96
		c-0.29,2.97-0.57,5.76-2.57,6.05c-0.11,0.02-0.22,0.03-0.32,0.03c-2.01,0-2.26-2.35-2.48-4.43c-0.1-0.98-0.32-3.02-0.75-3.03
		c0,0-0.28,0.17-0.57,1.12c-1,3.18-0.66,9.77-0.18,10.8h0.01c2.75,4.49,7.02,8.29,12.69,11.29c3.54-0.23,6.1-1.96,7.09-2.98
		c-0.67,0.01-1.54,0.11-2.32,0.2c-0.74,0.09-1.38,0.16-1.85,0.16c-0.4,0-0.85-0.04-1.17-0.37c-0.22-0.21-0.34-0.56-0.31-0.86
		c0.08-0.69,0.53-0.99,3.21-2.66c1.16-0.72,3.06-1.9,4.1-2.72c-1.04,0.11-2.54,0.65-3.89,1.13l-0.67,0.24
		c-0.37,0.13-0.77,0.2-1.16,0.2c-1.89,0-3.49-1.52-4.1-3.02c-0.37-0.89-0.32-1.7,0.12-2.24c0.04-0.05,0.08-0.1,0.13-0.15
		l23.63-22.62c0.07-0.08,0.19-0.28,0.2-0.32c0,0-0.03-0.04-0.17-0.12L259.669,349.668z M327.159,418.638
		c-5.79-0.38-11.06-2.16-14.46-4.87c-5.52-4.45-8.65-10.36-9.07-17.11c-0.33-5.28,0.27-12.77,9-17.05
		c-0.99-0.18-2.06-0.28-3.12-0.28c-2.98,0-5.72,0.75-7.72,2.11c-0.28,0.2-0.66,0.3-1.12,0.3c-0.15,0-1.49-0.03-2.05-0.83
		c-0.25-0.36-0.51-0.71-0.77-1.06c-0.98-1.33-2-2.7-2.49-4.21c-0.04-0.14-0.11-0.23-0.16-0.27c-0.01,0.01-0.02,0.03-0.03,0.06
		c-1.04,2.31-1.42,5.19-1.42,5.22c-0.06,0.47-0.44,0.83-0.92,0.87c-4.24,0.31-7.58,5.18-9.94,14.47c1.04,1.45,2.9,2.42,4.42,2.89
		c1.68-1.51,3.31-1.84,4.42-1.84c1.5,0,2.94,0.62,3.96,1.7c0.89,0.95,1.36,2.19,1.28,3.4c-0.04,0.64-0.22,1.36-0.43,2.19
		c-0.93,3.72-2.21,8.81,6.67,12.31c5.97,2.34,11.76,4.45,17.11,4.45c2.46,0,4.7-0.44,6.87-1.34c0.53-0.22,0.67-0.58,0.64-0.77
		C327.779,418.698,327.309,418.648,327.159,418.638z M301.069,375.729c0.26,0.35,0.52,0.7,0.76,1.04c0.1,0.04,0.3,0.09,0.5,0.09
		c0.03,0,0.06,0,0.08,0c1.94-1.3,4.39-2.11,7.11-2.34l5.13-10.11c-3.9,1.69-7.64,3.7-11.15,5.66l-2.69,5.31
		C300.899,375.499,300.989,375.619,301.069,375.729z M339.459,369.468c0.31,0.26,0.61,0.51,0.91,0.77c0.03,0,0.07,0,0.13,0
		c0.19,0,0.36-0.03,0.45-0.06c1.34-1.48,3.09-2.67,5.21-3.55l0.46-2.55c-1.68-0.88-4.04-1.97-7.02-2.72l-1.27,7.15
		C338.689,368.829,339.059,369.138,339.459,369.468z M375.639,404.829c-0.08,0-0.17,0.01-0.26,0.02c-1.971,0.36-3.95,0.54-5.9,0.54
		c-3.55,0-6.77-0.62-9.3-1.79c-6.43-2.98-10.9-7.96-12.93-14.42c-1.59-5.05-2.82-12.46,4.64-18.71c-3.16,0.2-7.43,1.43-10.09,4.4
		c-0.54,0.59-1.56,0.64-1.86,0.64c-0.57,0-1.02-0.14-1.35-0.41c-0.33-0.29-0.67-0.58-1.01-0.86c-1.27-1.05-2.57-2.14-3.41-3.48
		c-0.07-0.12-0.15-0.18-0.22-0.22c0,0.02-0.01,0.04-0.01,0.07c-0.46,2.49-0.13,5.37-0.13,5.4c0.05,0.47-0.23,0.92-0.68,1.07
		c-4.04,1.32-6.11,6.85-6.18,16.44c1.38,1.15,3.41,1.65,5,1.74c1.31-1.92,3.16-3.01,5.16-3.01c2.45,0,4.6,1.66,5,3.85
		c0.11,0.63,0.11,1.37,0.1,2.24c0,3.83-0.02,9.08,9.45,10.33c3.63,0.49,7.47,0.93,10.94,0.93c5.59,0,9.63-1.13,13.07-3.67
		c0.399-0.3,0.51-0.66,0.439-0.87C376.049,404.869,375.819,404.829,375.639,404.829z M319.809,258.508
		c-0.16,0.26-0.44,1.06,0.45,2.96c0.5,1.08,0.97,1.46,1.24,1.46c0.33,0,0.97-0.48,1.63-1.56c0.17-0.27,0.38-0.58,0.61-0.92
		c0.39-0.58,1.25-1.85,1.41-2.45c-0.04-0.01-0.09-0.01-0.15-0.01c-1.53,0.11-3.06,0.17-4.56,0.19c-0.06,0.02-0.13,0.02-0.19,0.03
		C320.189,258.208,319.969,258.258,319.809,258.508z M347.699,266.138l22.3-21.35c0.02-0.04,0.04-0.08,0.06-0.12
		c-0.06,0.03-0.13,0.07-0.2,0.11c-3.569,2.07-7.22,3.93-10.85,5.52l-15.45,14.8c0.84,0.12,1.72,0.3,2.66,0.54
		C346.739,265.778,347.239,265.938,347.699,266.138z M417.129,204.338c-0.66,0-1.79,0.51-2.99,1.05c-1.55,0.7-3.29,1.49-5.17,1.8
		c-0.09,0.01-0.18,0.02-0.26,0.02c-0.551,0-1.091-0.31-1.41-0.81c-0.3-0.47-0.351-1.04-0.12-1.51c0.86-1.82,0.649-4.88-0.13-6.11
		c-0.12-0.19-0.29-0.38-0.42-0.38c-0.42,0-0.59,0.13-0.931,1.68c-0.229,1.03-0.489,2.2-1.35,3.05c-1.42,1.43-4.62,6-6.58,9.41
		c-1.28,2.21-6.77,5.28-15,9.71c-3.62,1.95-7.05,3.8-8.91,5.08c-4.49,3.09-12.62,8.27-16.48,8.27c-0.25,0-0.48-0.02-0.7-0.06
		c-0.54-0.11-1.41-0.16-2.66-0.16c-1.42,0-3.18,0.07-5.21,0.14c-2.67,0.09-5.69,0.2-8.92,0.2c-2.12,0-4.05-0.05-5.89-0.14
		c-1.55,1.77-7.33,9.09-10.93,17.56c33.46-1,55.74-19.55,64.2-26.6c1.36-1.13,2.35-1.95,2.99-2.37c1.03-0.66,2.03-1.39,3.08-2.17
		c3.439-2.52,7-5.13,11.47-5.13c5.09,0,9.74-4.41,11.47-7.19c1.4-2.22,1.58-4.41,1.17-5.14
		C417.359,204.369,417.269,204.338,417.129,204.338z M296.219,333.898c1.01-1.15,2.05-2.34,3.13-3.56
		c7.63-8.59,18.08-19.64,25.51-27.39c2.58-2.7,3.62-3.07,4.29-3.07c0.51,0,0.96,0.25,1.22,0.68c0.62,1.02,0.03,3.26-1.75,6.64
		c-6.76,12.86-11.73,25.14-13.64,33.71c-1.69,7.62-9.01,17.37-15.31,23.96c-1.4,1.46-1.98,2.35-2.21,2.83
		c0.48-0.11,1.39-0.43,2.95-1.31l0.71-0.4c8.9-5.03,19.98-11.29,31.12-11.29c0.47,0,0.94,0.01,1.4,0.02
		c0.57,0.02,1.13,0.05,1.68,0.09c0.28,0.02,0.55,0.04,0.81,0.07c0.39,0.04,0.77,0.08,1.15,0.13l0.09,0.02l0.58,0.07
		c6.57,1,10.87,3.59,14.66,5.88c1.78,1.07,3.45,2.08,5.15,2.78c0.35,0.14,0.77,0.3,1.19,0.44c0.05,0.02,0.1,0.03,0.15,0.03
		c0.17,0,0.3-0.16,0.38-0.29c0.31-0.48,0.41-1.41-0.06-2.39c-4.69-9.84-6.19-31.17-3.09-43.88c0.35-1.42,0.73-2.95,1.14-4.56
		c3.71-14.75,9.91-39.46,1.74-42.82c-2.81-1.16-5-1.72-6.7-1.72c-0.39,0-0.76,0.03-1.1,0.09c-0.01,0-0.02,0-0.03,0.01
		c-0.09,0.02-0.14,0.06-0.17,0.13c-0.04,0.07-0.03,0.15-0.03,0.16c0.01,0.01,0.01,0.02,0.02,0.03c1.9,2.11,2.53,5,1.99,9.12
		c-0.31,2.38-1.28,3.85-2.51,3.85c-0.4,0-0.78-0.16-1.08-0.46c-0.54-0.54-0.8-1.49-0.79-2.91c0.03-4.97-1.37-7.36-4.86-8.26
		c-1.76-0.45-3.3-0.68-4.71-0.68c-4.62,0-7.38,2.43-11.37,6.42c-3.7,3.71-24.1,20.88-40.57,34.63c-0.83,0.69-1.58,1.04-2.25,1.04
		c-0.62,0-1.16-0.31-1.43-0.84c-0.43-0.82-0.18-2.03,0.71-3.3c1.1-1.59,2.66-3.41,4.66-5.4c0.39-0.4,0.84-0.84,1.33-1.32
		c6.07-5.97,18.7-18.38,18.7-30.26c0-9.73-4.35-16.38-11.62-17.8c-1.08-0.21-1.9-1.32-2.07-2.27c-0.14-0.79,0.15-1.48,0.76-1.86
		c1.14-0.68,2.56-1.05,4.11-1.05c4.32,0,10.15,2.81,13.45,9.08c0.59,1.12,1.04,1.41,1.13,1.43c0,0,0.42-0.18,0.89-1.65
		c3.23-10.05,10-18.81,12.37-21.68c-0.78-0.26-2.24-0.53-4.91-0.53c-8.49,0-23.15,2.78-27.51,4.79c-0.14,0.07-0.26,0.13-0.38,0.2
		c-0.02,0.01-0.04,0.02-0.06,0.03c-1.83,0.92-4.26,2.21-6.87,3.99c-0.75,0.52-2.21,1.85-3.88,3.56
		c-3.28,3.48-10.7,18.65-16.94,41.49c-1.61,5.89-3.89,11.81-6.09,17.53c-6.46,16.72-12.03,31.17,0.72,39.09
		c4.77,2.96,8.9,4.4,12.62,4.4C282.709,349.369,288.379,342.878,296.219,333.898z M187.779,258.668
		c12.19,1.05,20.75,4.51,25.43,10.27c3.5,4.32,4.86,9.95,4.04,16.74c-0.21,1.71-0.49,3.49-0.78,5.36
		c-2.1,13.29-4.7,29.81,16.55,43.7c0.01,0.01,0.05,0.02,0.13,0.02c0.3,0,0.72-0.2,0.98-0.48c0.17-0.16,0.23-0.32,0.23-0.4
		c-0.74-22.56,11.05-45.67,21.08-61.08c11.42-17.55,23.5-29.93,26.38-31.9c3.14-2.16,6.11-3.65,8.27-4.73
		c1.4-0.7,2.97-1.49,3.49-1.98c-0.04,0-0.09,0-0.14,0c-0.88,0-2.27,0.42-3.38,0.76c-1.05,0.32-1.67,0.5-2.13,0.5h-0.07h-0.07
		c-1.35,0-2.94-0.16-7.56-2.19c-4.02-1.76-6.44-2.68-13.38-2.68c-1.34,0-2.83,0.04-4.55,0.11c-0.42,0.02-0.89,0.03-1.41,0.05
		c-11.93,0.45-48.23,1.8-73.55,26.77c-0.09,0.09-0.11,0.34-0.01,0.63C187.449,258.468,187.669,258.658,187.779,258.668z"/>
	<path fill="#F68632" d="M297.33,95.826c-97.667,0-176.84,79.174-176.84,176.84c0,34.22,9.734,66.16,26.564,93.229
		c-0.002,0.001-0.004,0.001-0.005,0.003c0.667,1.083-0.096,2.439-1.493,1.845c-2.747-1.356-5.314-2.831-7.603-4.431
		c-2.729-1.917-5.902-2.942-9.146-2.943h0c-5.671,0-10.714,3.126-13.16,8.16c-2.567,5.283-1.752,11.422,2.179,16.424
		c1.048,1.333,2.189,2.636,3.411,3.897c-1.938,5.957,0.129,12.446,5.326,16.62c2.069,1.655,4.614,3.332,7.439,4.943
		c-0.126,5.466,2.858,11.579,10.321,14.515c0.281,0.111,0.566,0.219,0.855,0.327c0.975,5.444,5.038,9.949,10.93,11.764
		c0.619,0.192,1.289,0.389,2.005,0.586c2.167,5.813,7.786,9.613,14.472,9.613c0.496,0,1.004-0.021,1.512-0.062
		c11.548-0.906,26.849-6.15,41.577-17.604c24.428,12.74,52.198,19.952,81.655,19.952c97.667,0,176.84-79.174,176.84-176.84
		S394.997,95.826,297.33,95.826z M356.861,234.551c3.069,0.569,11.238-4.481,16.436-8.051c5.178-3.57,21.652-11.101,23.604-14.465
		c1.941-3.373,5.188-8.051,6.747-9.61c1.549-1.549,0.647-5.031,2.98-5.031c2.04,0,2.746,5.197,1.451,7.923
		c-0.186,0.392,0.256,0.961,0.717,0.882c3.373-0.549,6.511-2.863,8.335-2.863c2.079,0,1.952,3.766,0,6.875
		c-1.942,3.108-6.874,7.658-12.316,7.658c-5.452,0-9.601,4.295-14.013,7.139c-4.354,2.815-29.135,28.605-69.233,29.165
		c4.089-10.502,11.601-19.211,12.013-19.623C343.721,235.12,353.782,233.973,356.861,234.551z M370.795,245.407l-22.907,21.937
		c-0.559-0.304-1.196-0.549-1.922-0.735c-1.755-0.451-3.305-0.677-4.697-0.706l17.181-16.445c3.972-1.736,7.609-3.628,10.904-5.541
		C372.826,241.896,370.795,245.407,370.795,245.407z M323.98,261.891c-1,1.628-2.932,3.628-4.628,0
		c-1.696-3.618,0.059-4.688,0.893-4.688v-0.02c1.598-0.02,3.177-0.088,4.727-0.196C327.736,256.988,324.98,260.273,323.98,261.891z
		 M329.825,206.78c-1.932,1.932,1.882,4.314-2.766,4.981c-4.647,0.657-8.963,0-8.963,0c0-0.588,1.187-3.873,2.972-6.168
		c0.245-0.334,0.049-0.844-0.363-0.706c-3.441,1.127-8.208,6.737-5.393,12.396c0.167,0.333,0.618,0.215,0.676-0.147
		c0.206-1.324,0.726-2.334,1.05-2.863c0.167-0.265,0.5-0.216,0.607-0.128c2.521,1.883,7.571-0.372,8.267,0.314
		c0.716,0.725-0.402,3.824,3.255,3.824c3.648,0,9.188,3.883,7.748,6.757c-1.442,2.883-5.756,0.882-10.738-0.775
		c-4.981-1.657-9.571,2.216-14.141,0c-4.57-2.216-6.56,0.333-8.11-1.216c-1.549-1.55,3.972-5.08,4.805-7.57
		c0.676-2.011,1.304-11.591,2.226-16.014c0.274-0.657,0.49-1.54,2.265-2.667c2.687-1.716,5.541-3.55,8.355-5.403
		c1.344-0.883,2.677-0.599,3.55-0.285c1.235,0.559,1.833,1.373,2.127,2.265c0.716,3.04-8.139,6.306-8.002,7.227
		c0.481,3.295,7.394-1.226,11.042-1.069h0.009c0.255,0.03,0.539,0.049,0.854,0.049c6.531,0,7.423,2.658,7.423,3.658
		C338.582,204.23,331.767,204.838,329.825,206.78z M293.522,221.058c-2.099-2.109-7.109,11.816-11.64,9.61
		c-3.03-1.481,2.893-5.962,1.127-7.727c-1.775-1.775-6.962,4.981-8.963,2.981c-1.363-1.363,2.089-5.717,4.403-8.345
		c0.392-0.382,1.706-1.844,3.56-2.746c7.168-3.442,15.2-7.864,22.044-12.15c0.922-0.598,1.942-1.265,3.04-1.971
		c0.059-0.039,0.118-0.078,0.167-0.108c1.157-0.676-0.235,10.366-3.108,9.934c0,6.315-7.757,17.053-9.629,16.387
		C292.639,226.255,295.62,223.156,293.522,221.058z M297.18,228.638c2.049-2.246,3.099-2.54,4.256-1.383
		c1.167,1.157,1.393,0.774,2.216-0.059c0.824-0.824,1.716-2.707,3.207-2.05c1.5,0.667,2.716,1,0.726,4.374
		c-2,3.383-2.716,4.707-6.208,3.099C297.896,231.021,295.846,230.089,297.18,228.638z M338.199,172.487
		c3.972,3.962-24.457,20.691-35.999,28.34c-16.033,10.022-38.568,20.78-41.216,18.122c-2.657-2.658,7.335-13.434,18.328-14.297h0.01
		c17.494-0.706,31.409-14.641,36.126-24.035C323.009,173.703,336.719,170.997,338.199,172.487z M311.546,176.861
		c-4.521,8.914-17.259,21.819-33.439,23.731l-3.638-12.229c12.964-2.069,23.555-11.101,29.232-19.053L311.546,176.861z
		 M255.963,123.387l43.815,42.147c-5.315,7.403-14.867,15.709-26.604,18.475l-17.907-60.132
		C255.072,123.23,255.62,123.043,255.963,123.387z M202.304,197.731l2.304-9.148l5.86,7.394l9.412-0.637l-5.221,7.858l3.514,8.755
		l-9.087-2.536l-7.241,6.045l-0.395-9.424l-7.988-5.02L202.304,197.731z M186.633,256.802c26.683-26.32,65.271-26.683,75.626-27.115
		c10.679-0.441,13.444,0.501,18.367,2.658c4.923,2.158,6.198,2.108,7.306,2.108c1.108,0,6.158-2.333,6.747-0.666
		c0.647,1.814-5.256,3.099-12.297,7.933c-5.521,3.775-48.414,49.845-47.021,92.13c0.039,1.216-1.902,2.373-2.893,1.726
		c-24.791-16.2-17.906-35.979-16.209-50.021c1.686-13.906-5.845-23.928-28.566-25.889
		C186.535,259.567,185.77,257.655,186.633,256.802z M147.279,299.908c-0.578,0.063-1.59-0.595-1.559-1.13
		c0.211-3.747-2.291-9.073-6.047-12.237c-0.825-0.694-1.062-1.85,0.001-1.728c3.617,0.41,9.167,2.085,14.786,3.691
		c7.271,2.076,12.35,5.654,12.35,10.963c0,3.561,0.207,6.082,1.074,7.773c0.427,0.834,1.491,0.38,1.608-0.419
		c0.235-1.612,1.161-3.159,2.396-3.776c1.847-0.924,2.192-3.924,3.115-4.847c2.654,2.654,1.155,5.194,1.155,6.001
		c0,0,1.153,2.885,2.076,3.809c0,0,4.213,0.52,5.309,1.616c-1.789,1.788-3.809,2.425-4.615,2.425c-0.611,0-1.748,1.051-3.41,1.567
		c-0.539,0.167-1.07,1.433-0.384,1.87c3.287,2.096,10.97,2.353,13.835,5.218c3.117,3.117,1.369,16.813,2.507,22.878
		c0.126,0.67-0.728,1.484-1.34,1.271c-4.286-1.482-8.438-6.104-8.438-9.84c0-3.986-0.704-7.871-6.807-7.338
		c-0.434,0.039-1.064-0.965-0.995-1.543c0.427-3.536-1.343-7.043-3.624-7.738c-2.654-0.809-6.117-2.077-6.117-4.731
		c0-2.408-1.709-4.341-5.989-3.302c-0.438,0.107-1.26-0.545-1.291-1.133C156.673,305.452,153.695,299.202,147.279,299.908z
		 M224.672,400.808c-18.456,24.732-40.794,31.812-51.67,32.665c-2.697,0.216-2.54-1.628-0.882-2.51
		c1.52-0.814,3.04-1.726,4.423-2.677c1.765-1.206,0.922-2.51-1.079-2.344c-4.933,0.402-10.571-0.569-15.307-2.04
		c-2.207-0.676-1.775-2.147,0.235-2.441c4.197-0.608,8.169-2.118,11.229-3.677c2.569-1.314,1.432-2.51-0.833-2.344
		c-7.326,0.52-16.151-1.206-21.437-3.285c-2.716-1.069-1.697-2.432,0.598-2.265c3.883,0.274,8.845,0.088,12.66-0.735
		c1.873-0.412,1.48-1.893-0.275-2.246c-8.953-1.775-21.436-7.551-27.173-12.141c-1.647-1.324-0.854-2.627,0.853-2.255
		c3.913,0.824,9.61,1.305,14.386,1.305c3.216,0,2.314-1.687-0.118-2.491c-9.993-3.314-17.661-9.767-21.662-14.856
		c-1.657-2.108-0.078-2.991,1.471-1.902c24.967,17.445,66.173,19.907,79.235,10.453c0.599,3.609,4.139,9.268,7.708,10.611
		c0.824,0.304,1.627-0.902,1.274-1.412c-7.315-10.425-4.305-15.396,0.687-18.378c2.207,4.658,6.413,10.12,15.307,14.611
		C234.919,394.1,233.507,400.808,224.672,400.808z M260.602,350.942l-23.663,22.653v0.01c-0.873,0.853,1.442,4.433,3.991,3.53
		c2.55-0.902,5.443-2.069,6.453-1.049c1.01,1.01-8.277,5.747-7.865,6.148c0.402,0.412,5.198-0.784,5.992,0
		c0.706,0.716-3.099,4.481-8.659,4.717c-6.953-3.629-10.924-7.865-13.327-11.778c0-0.009-0.009-0.009-0.009-0.009
		c-0.912-1.648-1.127-13.425,1.569-13.425c2.707,0,0.883,7.815,3.442,7.433c2.569-0.373,0.843-10.954,3.766-9.983
		c1.961,0.657,2.138,5.58,2.422,8.767l21.976-21.044c0,0,0.313-0.461,0.843,0.068c0.598,0.599,1.363,1.03,2.138,1.52
		c0.255,0.157,0.51,0.305,0.755,0.451C261.749,349.697,260.602,350.942,260.602,350.942z M261.593,345.814
		c-18.043-11.199-1.334-34.744,4.932-57.73c6.276-22.976,13.739-38.264,17.181-41.912c1.883-1.922,3.295-3.187,4.03-3.696
		c2.58-1.756,4.992-3.05,6.992-4.061c0.147-0.088,0.304-0.167,0.48-0.245c5.953-2.745,30.949-7.041,34.371-3.618
		c-0.461,0.451-9.218,10.61-12.954,22.25c-1.02,3.177-2.51,2.942-3.864,0.382c-3.893-7.414-12.022-10.14-16.151-7.639
		c-0.794,0.48,0.039,2.108,0.98,2.294c6.609,1.285,12.425,7.149,12.425,18.78c0,13.288-15.092,27.055-20.319,32.282
		c-2.108,2.108-3.56,3.834-4.55,5.266c-1.471,2.128-0.618,3.54,1.51,1.765c9.581-8.002,36.293-30.351,40.509-34.567
		c5.148-5.159,8.679-8.168,17.034-6.001c4.629,1.187,5.639,4.766,5.609,9.228c-0.02,3.599,1.932,2.863,2.393-0.617
		c0.451-3.462,0.108-6.257-1.746-8.316c-0.019-0.02-0.049-0.049-0.068-0.078c-0.422-0.54-0.226-1.628,0.735-1.883
		c0.01-0.01,0.02-0.01,0.02-0.01c1.952-0.363,4.57,0.078,8.444,1.677c9.874,4.06,1.52,32.969-2.285,48.541
		c-3.089,12.641-1.53,33.675,3.021,43.217c1.06,2.216-0.05,4.55-1.677,4.03c-0.421-0.138-0.833-0.294-1.255-0.461
		c-5.413-2.236-10.091-7.158-19.593-8.601c-0.226-0.029-0.441-0.059-0.657-0.088c-0.363-0.049-0.736-0.088-1.118-0.127
		c-0.255-0.03-0.52-0.05-0.784-0.069c-0.53-0.039-1.079-0.068-1.638-0.088c-0.441-0.01-0.902-0.02-1.363-0.02
		c-11.169,0-22.564,6.609-31.341,11.562c-5.256,2.961-6.168,1.324-1.952-3.079c6.472-6.776,13.454-16.24,15.063-23.486
		c1.971-8.855,7.159-21.466,13.729-33.959c2.305-4.393,3.393-8.904-2.157-3.098c-7.501,7.835-17.926,18.857-25.487,27.369
		C286.942,345.814,279.636,357.022,261.593,345.814z M347.731,363.543l-0.687,3.805c-2.01,0.766-3.952,1.922-5.423,3.57
		c-0.304,0.333-1.471,0.451-1.814,0.157c-0.843-0.735-1.755-1.441-2.559-2.196l1.549-8.737
		C342.377,360.916,345.231,362.18,347.731,363.543z M316.763,362.465l-6.609,13.013c-2.501,0.137-5.119,0.794-7.276,2.265
		c-0.363,0.245-1.53,0.079-1.795-0.294c-0.461-0.657-0.971-1.324-1.441-1.98l3.108-6.119
		C307.025,366.947,311.791,364.387,316.763,362.465z M327.569,420.675c-7.501,3.108-15.219,0.627-24.722-3.109
		c-11.738-4.619-7.09-12.356-6.874-15.494c0.206-3.148-4.413-6.12-8.385-2.079c-2.147-0.53-4.609-1.883-5.776-3.824
		c1.275-5.158,4.207-15.151,10.944-15.651c0,0,0.382-3.021,1.5-5.501c0.539-1.196,1.736-0.696,2.059,0.313
		c0.559,1.727,1.952,3.344,3.119,5.001c0.255,0.363,1.422,0.539,1.794,0.285c3.746-2.55,8.904-2.648,12.366-1.824
		c0.765,0.176,0.471,1.245-0.215,1.569c-7.993,3.756-9.13,10.13-8.757,16.239c0.412,6.619,3.579,12.258,8.708,16.386
		c3.618,2.893,9.051,4.334,13.896,4.658C329.276,417.772,329.334,419.94,327.569,420.675z M376.258,406.73
		c-6.531,4.825-14.621,4.276-24.732,2.932c-12.513-1.657-9.856-10.287-10.404-13.386c-0.56-3.099-5.756-4.874-8.64,0
		c-2.216,0-4.923-0.726-6.531-2.324c0-5.315,0.441-15.72,6.864-17.828c0,0-0.353-3.02,0.137-5.698
		c0.226-1.294,1.52-1.088,2.069-0.196c0.961,1.55,2.707,2.786,4.227,4.109c0.344,0.294,1.52,0.177,1.814-0.147
		c3.02-3.373,8.002-4.717,11.571-4.756c0.775-0.01,0.746,1.099,0.157,1.579c-6.855,5.569-6.424,12.032-4.59,17.867
		c1.991,6.335,6.423,11.042,12.395,13.807c4.207,1.942,9.827,2.04,14.603,1.177C377.218,403.514,377.797,405.593,376.258,406.73z
		 M400.281,341.218l-7.521-5.694l-8.955,2.966l3.092-8.911l-5.588-7.601l9.431,0.188l5.501-7.665l2.737,9.028l8.989,2.862
		l-7.74,5.394L400.281,341.218z M423.123,271.328l-9.087-2.536l-7.241,6.045l-0.395-9.424l-7.988-5.02l8.842-3.287l2.304-9.148
		l5.86,7.394l9.412-0.637l-5.221,7.858L423.123,271.328z M417.121,201.043c-1.451,0.647-3.089,1.383-4.796,1.667
		c-0.931,0.147-0.97-0.441-0.794-0.794c0.53-1.079,0.745-2.569,0.678-3.962l11.483-10.993c0.823-0.824,2.882-0.775,3.656,0
		c0.785,0.784,1.678,2.677,0.314,3.971L417.121,201.043z"/>
	<path fill="#F68B3A" d="M421.669,148.329c-33.21-33.21-77.37-51.5-124.34-51.5s-91.13,18.29-124.34,51.5s-51.5,77.37-51.5,124.34
		c0,32.85,9.13,64.91,26.41,92.7c0.03,0.04,0.05,0.08,0.07,0.13c0.42,0.75,0.43,1.64,0.04,2.34c-0.36,0.66-1.04,1.05-1.8,1.05
		c-0.34,0-0.69-0.08-1.04-0.23c-0.02,0-0.04-0.01-0.06-0.02c-2.9-1.43-5.5-2.95-7.73-4.51c-2.57-1.8-5.53-2.76-8.57-2.76
		c-5.29,0-9.99,2.91-12.26,7.6c-2.4,4.93-1.63,10.67,2.06,15.37c1.02,1.29,2.14,2.58,3.35,3.82c0.25,0.26,0.34,0.65,0.23,1
		c-1.81,5.55,0.16,11.64,5,15.53c1.98,1.59,4.44,3.22,7.31,4.86c0.32,0.18,0.51,0.52,0.5,0.89c-0.14,6.05,3.48,11.12,9.69,13.56
		c0.28,0.11,0.55,0.21,0.84,0.32c0.33,0.12,0.57,0.41,0.63,0.76c0.93,5.19,4.76,9.3,10.24,10.99c0.61,0.18,1.27,0.38,1.98,0.57
		c0.31,0.09,0.56,0.32,0.67,0.62c2.03,5.44,7.34,8.96,13.54,8.96c0.46,0,0.94-0.02,1.43-0.06c13.2-1.03,28.16-7.37,41.04-17.39
		c0.18-0.14,0.4-0.21,0.62-0.21c0.15,0,0.31,0.03,0.46,0.11c24.88,12.98,52.96,19.84,81.19,19.84c46.97,0,91.13-18.29,124.34-51.5
		c33.21-33.22,51.5-77.37,51.5-124.34C473.169,225.698,454.879,181.539,421.669,148.329z M314.769,179.878
		c6.19-5.66,16.69-8.79,21.59-8.79c1.27,0,2.08,0.22,2.55,0.69c0.51,0.51,0.73,1.17,0.65,1.92c-0.48,4.44-13.05,12.78-29.44,23.22
		c-2.75,1.75-5.35,3.4-7.37,4.74c-14.45,9.04-34.09,18.7-40.31,18.7c-0.98,0-1.69-0.23-2.16-0.7c-0.46-0.46-1.13-1.52-0.41-3.46
		c1.67-4.52,10.24-11.83,19.37-12.54c0.02-0.01,0.05-0.01,0.07-0.01c17.43-0.7,30.87-14.77,35.25-23.48
		C314.609,180.059,314.679,179.958,314.769,179.878z M303.609,168.318c0.03-0.01,0.06-0.01,0.09-0.01c0.26,0,0.51,0.1,0.69,0.28
		l7.85,7.55c0.32,0.31,0.4,0.78,0.2,1.17c-4.39,8.65-17.12,22.26-34.21,24.28c-0.05,0-0.08,0-0.12,0c-0.44,0-0.83-0.28-0.96-0.71
		l-3.64-12.23c-0.08-0.28-0.04-0.57,0.11-0.82c0.16-0.24,0.41-0.41,0.69-0.45c12.7-2.03,23.09-10.96,28.58-18.65
		C303.059,168.488,303.319,168.338,303.609,168.318z M254.499,122.758c0.26-0.34,0.65-0.54,1.09-0.54c0.4,0,0.78,0.16,1.08,0.46
		l43.8,42.14c0.36,0.34,0.41,0.9,0.12,1.3c-2.52,3.52-11.95,15.27-27.19,18.86c-0.07,0.02-0.15,0.03-0.23,0.03
		c-0.43,0-0.82-0.28-0.95-0.71l-17.91-60.14C254.099,123.458,254.339,122.979,254.499,122.758z M193.109,200.079l8.35-3.1l2.18-8.64
		c0.09-0.37,0.39-0.65,0.76-0.73c0.07-0.02,0.14-0.03,0.21-0.03c0.3,0,0.59,0.14,0.78,0.38l5.54,6.98l8.88-0.6c0.03,0,0.05,0,0.07,0
		c0.36,0,0.69,0.19,0.87,0.5c0.19,0.33,0.17,0.74-0.04,1.05l-4.93,7.42l3.32,8.27c0.14,0.35,0.07,0.76-0.18,1.04
		c-0.19,0.22-0.47,0.33-0.75,0.33c-0.09,0-0.18-0.01-0.26-0.03l-8.59-2.4l-6.83,5.71c-0.19,0.15-0.41,0.23-0.64,0.23
		c-0.14,0-0.28-0.03-0.41-0.08c-0.35-0.16-0.58-0.5-0.59-0.87l-0.38-8.9l-7.54-4.74c-0.32-0.21-0.5-0.57-0.46-0.95
		S192.759,200.208,193.109,200.079z M148.259,300.849c-0.28,0-0.58,0.02-0.87,0.05c-0.06,0.01-0.13,0.01-0.19,0.01
		c-0.76,0-1.52-0.45-1.95-0.91c-0.47-0.49-0.55-0.97-0.53-1.28c0.2-3.54-2.3-8.56-5.69-11.41c-0.86-0.72-1.26-1.77-0.97-2.55
		c0.22-0.6,0.77-0.95,1.47-0.95c0.08,0,0.17,0,0.26,0.01c3.3,0.38,8.05,1.74,13.09,3.19l1.86,0.54c8.55,2.44,13.07,6.56,13.07,11.92
		c0,2.94,0.13,5.26,0.75,6.83c0.39-1.85,1.49-3.45,2.88-4.15c0.82-0.4,1.3-1.58,1.73-2.62c0.33-0.79,0.64-1.55,1.13-2.04
		c0.19-0.19,0.45-0.29,0.71-0.29c0.25,0,0.51,0.1,0.7,0.29c2.53,2.53,1.87,5.07,1.55,6.28c-0.02,0.1-0.05,0.21-0.07,0.3
		c0.39,0.94,1.05,2.32,1.56,3c1.24,0.18,4.38,0.72,5.5,1.85c0.39,0.39,0.39,1.02,0,1.41c-1.96,1.97-4.21,2.7-5.27,2.72
		c-0.15,0.04-0.5,0.25-0.77,0.4c-0.57,0.33-1.35,0.79-2.29,1.09c-0.04,0.05-0.07,0.13-0.09,0.2c1.3,0.77,3.38,1.29,5.58,1.84
		c3.17,0.79,6.45,1.6,8.27,3.42c2.24,2.24,2.28,8.22,2.33,14.55c0.02,3.43,0.04,6.68,0.45,8.85c0.11,0.56-0.07,1.16-0.48,1.66
		c-0.44,0.52-1.04,0.83-1.63,0.83c-0.19,0-0.37-0.03-0.54-0.09c-4.85-1.68-9.11-6.72-9.11-10.78c0-4.05-0.77-6.39-4.73-6.39
		c-0.31,0-0.64,0.01-0.99,0.04c-0.03,0.01-0.08,0.01-0.11,0.01c-0.31,0-0.76-0.11-1.22-0.63c-0.44-0.49-0.83-1.3-0.74-2.03
		c0.38-3.19-1.23-6.15-2.93-6.67c-2.21-0.67-6.82-2.08-6.82-5.68c0-1.19-0.49-2.59-2.83-2.59c-0.57,0-1.22,0.08-1.93,0.26
		c-0.1,0.02-0.22,0.04-0.34,0.04c-0.93,0-2.12-0.97-2.18-2.1C155.699,305.878,153.149,300.849,148.259,300.849z M233.219,398.428
		c-1.81,2.14-4.52,3.27-8.04,3.37c-21.78,28.91-47.2,32.29-52.1,32.67c-0.17,0.01-0.34,0.02-0.49,0.02c-2.01,0-2.5-1.09-2.62-1.55
		c-0.26-1.04,0.42-2.19,1.68-2.86c1.54-0.82,3.03-1.73,4.33-2.62c0.27-0.18,0.41-0.33,0.47-0.43c-0.11-0.05-0.32-0.1-0.65-0.1
		c-0.08,0-0.16,0-0.25,0.01c-0.77,0.06-1.58,0.09-2.41,0.09c-4.05,0-8.76-0.77-13.28-2.17c-2.07-0.64-2.21-1.84-2.17-2.33
		c0.08-1.05,1.06-1.84,2.56-2.06c4.5-0.65,8.42-2.3,10.92-3.58c0.31-0.16,0.52-0.3,0.67-0.41c-0.16-0.03-0.37-0.06-0.64-0.06
		c-0.11,0-0.22,0.01-0.34,0.02c-0.9,0.06-1.85,0.09-2.81,0.09c-6.26,0-13.74-1.35-19.07-3.44c-2.2-0.87-2.34-2-2.23-2.6
		c0.19-0.99,1.27-1.61,2.82-1.61c0.15,0,0.3,0,0.45,0.01c1.09,0.08,2.24,0.12,3.43,0.12c3.29,0,6.47-0.3,8.95-0.83
		c0.12-0.03,0.22-0.06,0.29-0.09c-0.11-0.07-0.29-0.15-0.55-0.2c-8.78-1.74-21.42-7.39-27.6-12.34c-1.53-1.23-1.33-2.37-1.18-2.81
		c0.28-0.8,1.08-1.29,2.09-1.29c0.25,0,0.51,0.03,0.78,0.09c3.69,0.77,9.26,1.28,14.17,1.28c0.28,0,0.5-0.02,0.67-0.04
		c-0.25-0.16-0.62-0.34-1.1-0.5c-12.8-4.25-20.18-12.7-22.14-15.19c-1.12-1.43-1.02-2.42-0.73-3c0.3-0.62,0.94-0.99,1.71-0.99
		c0.6,0,1.26,0.23,1.86,0.65c16.58,11.59,38.85,15.72,54.15,15.72c10.59,0,19.3-1.92,23.92-5.26c0.17-0.12,0.38-0.19,0.59-0.19
		c0.12,0,0.25,0.03,0.38,0.08c0.32,0.13,0.55,0.42,0.6,0.76c0.57,3.41,3.88,8.55,6.98,9.8c0.02-0.02,0.04-0.05,0.06-0.07
		c-3.59-5.18-4.97-9.42-4.22-12.96c0.57-2.66,2.32-4.84,5.35-6.65c0.16-0.09,0.34-0.14,0.52-0.14c0.09,0,0.19,0.02,0.29,0.04
		c0.27,0.09,0.49,0.28,0.61,0.53c2.78,5.88,7.64,10.51,14.85,14.15c0.29,0.14,0.48,0.41,0.54,0.73
		C235.679,392.579,235.339,395.918,233.219,398.428z M261.339,351.619c-0.02,0.02-0.03,0.03-0.05,0.05l-23.53,22.53
		c0.03,0.22,0.22,0.7,0.66,1.19c0.51,0.57,1.12,0.89,1.68,0.89c0.17,0,0.33-0.03,0.5-0.09l0.65-0.23c1.74-0.62,3.54-1.27,4.91-1.27
		c0.83,0,1.48,0.23,1.93,0.69c0.28,0.27,0.41,0.66,0.36,1.04c-0.12,1.08-1.49,2.11-5.51,4.61c0.45-0.04,0.9-0.07,1.3-0.07
		c0.97,0,1.58,0.18,1.97,0.56c0.2,0.2,0.59,0.73,0.25,1.59c-0.63,1.62-4.38,4.62-9.57,4.84c-0.01,0-0.02,0-0.04,0
		c-0.16,0-0.32-0.04-0.46-0.11c-6.09-3.18-10.69-7.25-13.68-12.09c-0.03-0.03-0.05-0.06-0.07-0.1c-0.95-1.71-1.23-10.67,0.53-13.65
		c0.61-1.04,1.38-1.26,1.91-1.26c2.27,0,2.55,2.67,2.78,4.81c0.09,0.8,0.24,2.26,0.52,2.62c0.49-0.39,0.73-2.89,0.87-4.25
		c0.29-2.98,0.57-5.79,2.68-5.79c0.22,0,0.45,0.04,0.68,0.11c2.16,0.72,2.64,4.19,2.93,7.55l20.41-19.55
		c0.23-0.27,0.61-0.51,1.09-0.51c0.3,0,0.75,0.09,1.2,0.55c0.42,0.41,0.98,0.76,1.58,1.14l0.39,0.24c0.15,0.09,0.32,0.19,0.48,0.29
		l0.25,0.14c0.78,0.44,1.03,1.06,1.1,1.49C262.199,350.619,261.479,351.458,261.339,351.619z M327.949,421.599
		c-2.41,1-4.91,1.49-7.63,1.49c-5.7,0-11.69-2.17-17.84-4.59c-10.51-4.14-8.8-10.98-7.88-14.66c0.19-0.74,0.35-1.38,0.38-1.83
		c0.04-0.66-0.23-1.35-0.75-1.91c-0.64-0.67-1.55-1.06-2.5-1.06c-1.18,0-2.36,0.57-3.43,1.66c-0.19,0.19-0.45,0.3-0.71,0.3
		c-0.08,0-0.16-0.01-0.24-0.03c-2.17-0.54-4.99-1.94-6.39-4.28c-0.14-0.23-0.18-0.5-0.12-0.76c0.94-3.78,3.71-15.01,11.05-16.31
		c0.19-1.1,0.63-3.18,1.46-5.01c0.37-0.82,1.02-1.29,1.8-1.29c0.93,0,1.8,0.7,2.12,1.71c0.39,1.19,1.26,2.37,2.19,3.63
		c0.24,0.33,0.48,0.66,0.72,0.99c0.1,0.04,0.3,0.09,0.49,0.09c0.04,0,0.06,0,0.08,0c0.5-0.34,1.02-0.63,1.53-0.88
		c-0.28-0.01-1.48-0.08-2.01-0.83c-0.26-0.37-0.53-0.74-0.81-1.11c-0.21-0.29-0.42-0.58-0.63-0.87c-0.22-0.3-0.25-0.7-0.08-1.03
		l3.11-6.12c0.09-0.18,0.23-0.32,0.4-0.42c4.38-2.46,9.13-5.01,14.14-6.95c0.12-0.04,0.24-0.06,0.36-0.06
		c0.28,0,0.55,0.11,0.75,0.33c0.27,0.3,0.33,0.75,0.15,1.12l-6.61,13.01c-0.17,0.32-0.48,0.53-0.84,0.55
		c-1.64,0.09-3.94,0.45-6.02,1.63c1.94-0.61,3.84-0.78,5.32-0.78s2.98,0.17,4.32,0.49c0.67,0.16,1.14,0.67,1.21,1.35
		c0.09,0.84-0.43,1.72-1.23,2.1c-7.86,3.69-8.5,10.1-8.19,15.27c0.39,6.17,3.27,11.59,8.34,15.67c3.08,2.46,7.94,4.08,13.33,4.44
		c1.33,0.08,2.32,0.87,2.51,2C329.999,419.849,329.239,421.059,327.949,421.599z M376.849,407.539c-3.75,2.77-8.28,4.06-14.25,4.06
		c-3.59,0-7.5-0.45-11.2-0.94c-11.21-1.49-11.19-8.54-11.19-12.33c0.01-0.76,0.01-1.43-0.07-1.88c-0.22-1.23-1.56-2.2-3.03-2.2
		c-1.46,0-2.8,0.9-3.77,2.54c-0.18,0.3-0.5,0.49-0.86,0.49c-2.22,0-5.29-0.69-7.23-2.62c-0.19-0.18-0.3-0.44-0.3-0.71
		c0-3.89,0-15.46,6.81-18.49c-0.08-1.11-0.15-3.23,0.21-5.21c0.18-1.05,0.93-1.74,1.89-1.74c0.79,0,1.56,0.46,2.01,1.2
		c0.66,1.06,1.79,2,2.98,2.99c0.33,0.27,0.65,0.53,0.96,0.8c0.03,0.01,0.08,0.01,0.13,0.01c0.2,0,0.37-0.04,0.45-0.06
		c3.31-3.63,8.65-4.97,12.23-5.01c0.71,0,1.28,0.39,1.5,1.03c0.28,0.79-0.01,1.76-0.7,2.32c-6.74,5.48-5.82,11.85-4.26,16.79
		c1.85,5.91,5.95,10.47,11.86,13.2c2.271,1.05,5.2,1.61,8.46,1.61c1.83,0,3.7-0.17,5.54-0.51c0.21-0.03,0.42-0.05,0.62-0.05
		c1.14,0,2.05,0.61,2.38,1.6C378.379,405.528,377.919,406.749,376.849,407.539z M336.269,368.708l1.54-8.74
		c0.05-0.27,0.21-0.51,0.43-0.66c0.17-0.11,0.36-0.17,0.56-0.17c0.07,0,0.14,0.01,0.21,0.03c4.13,0.89,7.23,2.42,9.2,3.5
		c0.38,0.2,0.58,0.63,0.51,1.05l-0.69,3.81c-0.06,0.34-0.3,0.63-0.63,0.75c-2.1,0.8-3.79,1.91-5.03,3.31
		c-0.56,0.61-1.58,0.65-1.87,0.65c-0.58,0-1.03-0.13-1.34-0.4c-0.33-0.29-0.65-0.56-0.98-0.83c-0.54-0.45-1.1-0.92-1.62-1.4
		C336.319,369.378,336.209,369.039,336.269,368.708z M408.54,327.208l-7.311,5.1l0.05,8.9c0,0.38-0.21,0.73-0.55,0.9
		c-0.14,0.07-0.3,0.11-0.45,0.11c-0.21,0-0.43-0.07-0.6-0.2l-7.101-5.38l-8.46,2.8c-0.1,0.03-0.21,0.05-0.31,0.05
		c-0.27,0-0.53-0.1-0.72-0.3c-0.261-0.27-0.351-0.67-0.23-1.03l2.92-8.41l-5.279-7.18c-0.221-0.31-0.25-0.71-0.08-1.05
		c0.17-0.33,0.52-0.54,0.89-0.54c0.01,0,0.01,0,0.02,0l8.9,0.18l5.2-7.24c0.189-0.27,0.49-0.42,0.81-0.42
		c0.051,0,0.11,0.01,0.16,0.01c0.38,0.07,0.69,0.34,0.8,0.7l2.58,8.53l8.49,2.7c0.36,0.11,0.63,0.43,0.69,0.8
		C409.009,326.619,408.849,326.999,408.54,327.208z M425.659,255.269l-4.93,7.42l3.32,8.27c0.14,0.35,0.069,0.75-0.181,1.04
		c-0.189,0.21-0.47,0.33-0.75,0.33c-0.09,0-0.18-0.01-0.27-0.04l-8.58-2.39l-6.83,5.71c-0.189,0.15-0.42,0.23-0.64,0.23
		c-0.141,0-0.28-0.03-0.41-0.09c-0.35-0.15-0.58-0.49-0.59-0.87l-0.38-8.9l-7.54-4.74c-0.32-0.2-0.5-0.57-0.46-0.95
		c0.04-0.38,0.29-0.7,0.64-0.83l8.35-3.11l2.181-8.63c0.09-0.37,0.39-0.66,0.76-0.74c0.07-0.01,0.14-0.02,0.21-0.02
		c0.3,0,0.59,0.14,0.78,0.38l5.54,6.98l8.88-0.6c0.03,0,0.05,0,0.069,0c0.351,0,0.69,0.18,0.86,0.49
		C425.889,254.539,425.869,254.948,425.659,255.269z M417.809,201.769c-0.08,0.08-0.18,0.14-0.28,0.19
		c-0.319,0.14-0.64,0.28-0.97,0.43c0.19-0.03,0.38-0.05,0.57-0.05c0.899,0,1.64,0.44,2.069,1.23c0.891,1.61,0.38,4.63-1.22,7.18
		c-2.04,3.26-7.229,8.12-13.17,8.12c-3.82,0-6.96,2.3-10.28,4.74c-1.04,0.76-2.109,1.55-3.189,2.24c-0.54,0.35-1.53,1.18-2.79,2.23
		c-3.9,3.25-10.69,8.9-20.13,14.2l0.43,0.77c0.91-0.52,1.55-0.76,2.09-0.76s1,0.25,1.25,0.68c0.48,0.84-0.02,2.06-0.53,2.94
		c-0.05,0.08-0.1,0.16-0.17,0.22l-21.85,20.92l0.23,0.24c0.25-0.25,0.57-0.44,0.93-0.54c0.05-0.02,0.11-0.03,0.16-0.04
		c0.49-0.09,1.01-0.14,1.55-0.14c1.97,0,4.41,0.61,7.46,1.87c9.78,4.02,3.8,27.8-0.56,45.16c-0.41,1.61-0.79,3.13-1.14,4.54
		c-3.02,12.36-1.58,33.04,2.96,42.55c0.7,1.46,0.68,3.16-0.05,4.32c-0.49,0.77-1.25,1.22-2.08,1.22c-0.25,0-0.51-0.04-0.76-0.12
		c-0.48-0.16-0.93-0.34-1.32-0.49c-1.86-0.77-3.6-1.82-5.44-2.93c-3.63-2.19-7.75-4.67-13.93-5.61l-0.55-0.07l-0.09-0.01
		c-0.35-0.05-0.72-0.09-1.09-0.13c-0.25-0.03-0.5-0.05-0.75-0.06c-0.52-0.04-1.06-0.07-1.6-0.09c-0.43-0.01-0.88-0.02-1.33-0.02
		c-10.61,0-21.44,6.12-30.14,11.03l-0.71,0.4c-1.92,1.08-3.38,1.63-4.35,1.63c-1.1,0-1.5-0.66-1.62-0.95
		c-0.31-0.71-0.35-2.03,2.8-5.32c6.11-6.4,13.21-15.8,14.81-23.01c1.95-8.74,6.98-21.2,13.82-34.21c0.98-1.87,1.46-3.2,1.66-3.99
		c-0.44,0.33-1.14,0.94-2.21,2.05c-7.41,7.75-17.85,18.78-25.46,27.34c-1.07,1.21-2.11,2.4-3.11,3.55
		c-7.88,9.02-14.11,16.15-22.99,16.15c-4.1,0-8.58-1.54-13.67-4.7c-14.16-8.79-8.03-24.69-1.54-41.51
		c2.19-5.68,4.45-11.54,6.03-17.34c5.96-21.82,13.42-38.1,17.42-42.33c1.81-1.85,3.33-3.24,4.19-3.84c2.32-1.58,4.49-2.78,6.25-3.69
		l-0.51-0.99c-0.58,0.32-1.22,0.64-1.92,0.99c-2.23,1.11-5.01,2.5-8.04,4.59c-2.7,1.84-14.73,14.27-25.83,31.34
		c-9.87,15.17-21.48,37.88-20.76,59.93c0.02,0.65-0.26,1.31-0.79,1.86c-0.65,0.67-1.58,1.08-2.42,1.08c-0.46,0-0.88-0.12-1.23-0.35
		c-22.33-14.59-19.61-31.83-17.43-45.68c0.3-1.86,0.57-3.61,0.78-5.29c0.75-6.23-0.46-11.36-3.62-15.24
		c-4.32-5.32-12.41-8.53-24.04-9.54c-0.93-0.08-1.78-0.8-2.16-1.84c-0.37-1.02-0.19-2.07,0.48-2.73
		c25.87-25.52,62.77-26.89,74.89-27.35c0.51-0.02,0.98-0.03,1.4-0.05c1.74-0.07,3.26-0.11,4.63-0.11c7.32,0,10.03,1.03,14.18,2.85
		c0.14,0.06,0.27,0.12,0.4,0.17l0.01-0.03c-0.69-0.34-1.14-0.84-1.34-1.48c-0.39-1.3,0.43-2.7,1.23-4.06
		c0.4-0.69,1.24-2.12,0.97-2.38c0,0-0.01-0.01-0.05-0.01c-0.6,0-1.88,0.88-2.91,1.59c-1.54,1.06-3,2.07-4.36,2.07
		c-0.63,0-1.2-0.23-1.64-0.67c-1.54-1.54-0.2-4.54,4.36-9.71c0.02-0.02,0.03-0.04,0.05-0.06l0.16-0.15c0.56-0.57,1.87-1.9,3.66-2.78
		c7.17-3.44,15.17-7.85,21.95-12.1l0.84-0.54c0.69-0.45,1.42-0.92,2.19-1.42c0.08-0.05,0.14-0.09,0.19-0.12
		c0.2-0.12,0.41-0.18,0.62-0.18c0.22,0,0.96,0.08,1.2,1.11c0.07,0.29,0.11,0.66,0.11,1.13c0,1.96-0.87,8.49-3.56,9.58
		c-0.45,4.72-4.4,11.68-7.6,14.86l0.49,0.22c0.78-0.61,1.45-0.88,2.12-0.88c0.72,0,1.38,0.32,2.02,0.96
		c0.18,0.18,0.31,0.29,0.4,0.35c0.08-0.07,0.17-0.17,0.25-0.25l0.15-0.15c0.15-0.15,0.32-0.37,0.51-0.61
		c0.34-0.43,0.76-0.96,1.29-1.35c-0.59-0.1-1.09-0.36-1.52-0.78c-1.59-1.6,0.4-3.69,2.16-5.54c1-1.05,2.13-2.23,2.4-3.06
		c0.31-0.92,0.66-4.02,0.99-7.02c0.37-3.27,0.75-6.65,1.21-8.88c0.01-0.06,0.03-0.12,0.06-0.18l0.06-0.17
		c0.28-0.7,0.7-1.76,2.59-2.96c2.3-1.47,5.33-3.41,8.34-5.39c0.76-0.5,1.6-0.76,2.5-0.76c0.62,0,1.25,0.12,1.94,0.37
		c0.02,0.01,0.05,0.02,0.07,0.03c1.34,0.61,2.24,1.57,2.67,2.86c0.01,0.03,0.01,0.06,0.02,0.09c0.64,2.7-3.11,4.86-6.11,6.6
		c-0.59,0.34-1.27,0.74-1.68,1.02c0.08,0.02,0.21,0.04,0.4,0.04c0.95,0,2.49-0.52,3.98-1.02c1.84-0.62,3.73-1.26,5.29-1.26
		c0.07,0,0.15,0,0.23,0.01c0.02,0,0.06,0,0.08,0c0.24,0.03,0.49,0.04,0.74,0.04c8.02,0,8.42,3.88,8.42,4.66
		c0,1.22-1.37,1.58-3.87,2.24c-1.82,0.48-4.31,1.14-5.18,2.01c-0.38,0.38-0.35,0.72-0.18,1.55c0.14,0.71,0.32,1.58-0.25,2.39
		c-0.49,0.7-1.39,1.11-2.9,1.32c-1.42,0.2-2.94,0.3-4.53,0.3c-2.7,0-4.64-0.29-4.72-0.3c-0.49-0.07-0.85-0.49-0.85-0.99
		c0-0.67,0.72-2.73,1.83-4.72c-1.12,0.91-2.21,2.23-2.86,3.79c-0.44,1.04-0.8,2.49-0.5,4.12c0.21-0.48,0.42-0.88,0.62-1.2
		c0.26-0.43,0.72-0.67,1.22-0.67c0.32,0,0.64,0.1,0.87,0.29c0.48,0.36,1.22,0.54,2.23,0.54c1.01,0,2.07-0.18,3.01-0.35
		c0.73-0.12,1.36-0.23,1.86-0.23c0.2,0,0.81,0,1.24,0.42c0.45,0.46,0.53,1.09,0.61,1.69c0.14,1.15,0.23,1.84,1.94,1.84
		c2.91,0,6.79,2.14,8.29,4.58c0.99,1.6,0.74,2.86,0.35,3.63c-0.67,1.33-1.86,2.01-3.54,2.01c-1.81,0-4-0.76-6.53-1.64
		c-0.61-0.21-1.24-0.43-1.88-0.65c-0.76-0.25-1.55-0.37-2.43-0.37c-1.32,0-2.68,0.28-3.99,0.56c-1.36,0.28-2.76,0.57-4.18,0.57
		c-1.35,0-2.54-0.26-3.66-0.8c-1.2-0.59-2.29-0.86-3.41-0.86c-0.24,0-0.47,0.01-0.68,0.03c0.79,0.35,1.68,0.75,2,1.76
		c0.31,0.96,0,2.14-1.06,3.93l-0.09,0.15c-1.29,2.17-2.19,3.7-3.82,4.04l0.06,0.3c6.05-1.25,13.32-2.23,18.53-2.23
		c3.82,0,6.09,0.49,7.16,1.56c0.19,0.18,0.29,0.44,0.29,0.71s-0.11,0.52-0.3,0.71c-0.08,0.08-8.95,10.15-12.7,21.84
		c-0.05,0.16-0.11,0.31-0.16,0.46l0.52,0.2c0.06-0.12,0.12-0.24,0.19-0.34c0.49-0.78,1.25-1.13,1.84-1.21
		c0.09-0.02,0.17-0.03,0.26-0.03c1.53-0.02,3.1-0.09,4.67-0.2c0.03,0,0.05,0,0.07,0l-0.05-0.91c-1.1,0.05-2.21,0.08-3.34,0.1h-0.01
		c-0.33,0-0.64-0.17-0.82-0.43c-0.19-0.28-0.23-0.63-0.11-0.94c4.33-11.13,12.16-19.89,12.23-19.96c0.19-0.19,0.45-0.3,0.71-0.3
		c0.02,0,0.04,0,0.06,0c1.94,0.11,3.98,0.17,6.25,0.17c3.19,0,6.2-0.11,8.86-0.2c2.04-0.07,3.81-0.14,5.27-0.14
		c1.39,0,2.35,0.06,3.03,0.19c0.09,0.02,0.21,0.03,0.33,0.03c2.39,0,8.13-2.96,15.35-7.92c1.95-1.34,5.42-3.21,9.1-5.2
		c5.53-2.98,13.11-7.06,14.211-8.94c1.859-3.24,5.21-8.13,6.899-9.82c0.44-0.44,0.63-1.27,0.8-2.07c0.29-1.3,0.73-3.25,2.891-3.25
		c0.819,0,1.569,0.46,2.109,1.31c1.101,1.75,1.301,5.08,0.511,7.38c1.42-0.32,2.81-0.95,4.06-1.52c0.07-0.03,0.14-0.06,0.21-0.09
		c-0.34,0.09-0.68,0.16-1.03,0.22c-0.16,0.02-0.3,0.04-0.43,0.04c-0.83,0-1.23-0.44-1.39-0.71c-0.28-0.45-0.301-1.03-0.03-1.56
		c0.42-0.86,0.63-2.15,0.57-3.47c-0.011-0.29,0.1-0.57,0.31-0.77l11.48-10.99c0.55-0.55,1.47-0.88,2.51-0.88
		c1.05,0,1.979,0.33,2.55,0.9c0.61,0.61,1.33,1.79,1.31,3.09c-0.01,0.89-0.359,1.69-1.02,2.31L417.809,201.769z"/>
	<path fill="#F78F43" d="M420.959,149.039c-33.021-33.02-76.93-51.21-123.63-51.21s-90.61,18.19-123.63,51.21
		s-51.21,76.93-51.21,123.63c0,32.66,9.07,64.52,26.24,92.14c0.07,0.1,0.11,0.18,0.14,0.25c0.56,1.04,0.56,2.28,0.01,3.27
		c-0.53,0.97-1.53,1.56-2.67,1.56c-0.44,0-0.9-0.09-1.35-0.28c-0.1-0.03-0.17-0.06-0.21-0.08c-2.91-1.44-5.56-2.98-7.84-4.58
		c-2.41-1.69-5.18-2.58-8-2.58c-4.91,0-9.26,2.7-11.36,7.04c-2.23,4.57-1.5,9.92,1.95,14.31c1.04,1.33,2.15,2.58,3.28,3.74
		c0.51,0.53,0.69,1.3,0.46,2c-1.68,5.15,0.16,10.82,4.68,14.45c1.91,1.54,4.33,3.14,7.18,4.77c0.63,0.36,1.02,1.05,1,1.79
		c-0.13,5.61,3.25,10.32,9.06,12.6c0.19,0.08,0.39,0.15,0.59,0.23l0.23,0.08c0.66,0.24,1.15,0.83,1.27,1.53
		c0.86,4.81,4.43,8.63,9.54,10.2l0.3,0.09c0.52,0.15,1.06,0.32,1.65,0.47c0.63,0.19,1.13,0.65,1.35,1.24
		c1.88,5.05,6.83,8.31,12.6,8.31c0.43,0,0.89-0.02,1.35-0.06c13.01-1.01,27.77-7.27,40.51-17.18c0.34-0.27,0.78-0.42,1.23-0.42
		c0.34,0,0.65,0.08,0.93,0.23c24.73,12.9,52.64,19.72,80.72,19.72c46.7,0,90.61-18.19,123.63-51.21
		c33.02-33.03,51.21-76.94,51.21-123.63C472.169,225.968,453.979,182.059,420.959,149.039z M303.459,167.329
		c0.11-0.02,0.19-0.02,0.24-0.02c0.52,0,1.03,0.21,1.4,0.57l7.83,7.54c0.64,0.62,0.8,1.56,0.4,2.35
		c-4.49,8.84-17.51,22.75-34.98,24.81c-0.04,0.01-0.08,0.01-0.12,0.01h-0.12c-0.89,0-1.66-0.57-1.92-1.42l-3.64-12.23
		c-0.16-0.56-0.08-1.13,0.21-1.62c0.35-0.53,0.85-0.85,1.41-0.93c12.38-1.98,22.54-10.72,27.91-18.24
		C302.399,167.688,302.899,167.388,303.459,167.329z M253.689,122.168c0.47-0.61,1.16-0.95,1.9-0.95c0.67,0,1.3,0.27,1.79,0.75
		l43.78,42.13c0.72,0.68,0.82,1.8,0.24,2.61c-2.56,3.58-12.16,15.56-27.77,19.24c-0.11,0.04-0.28,0.06-0.46,0.06
		c-0.88,0-1.65-0.57-1.91-1.42l-17.91-60.14C253.109,123.628,253.229,122.798,253.689,122.168z M192.759,199.138l7.86-2.91
		l2.05-8.13c0.17-0.72,0.76-1.29,1.49-1.46c0.15-0.04,0.3-0.06,0.45-0.06c0.6,0,1.19,0.28,1.56,0.76l5.22,6.57l8.35-0.57
		c0.03,0,0.05,0,0.07,0h0.07c0.71,0,1.38,0.38,1.73,1c0.38,0.66,0.35,1.48-0.07,2.11l-4.64,6.98l3.13,7.78
		c0.28,0.7,0.14,1.51-0.36,2.08c-0.36,0.41-0.91,0.66-1.5,0.66c-0.17,0-0.34-0.02-0.5-0.06l-8.11-2.26l-6.43,5.37
		c-0.39,0.31-0.82,0.46-1.28,0.46c-0.26,0-0.51-0.05-0.77-0.15c-0.02,0-0.04-0.01-0.06-0.02c-0.69-0.32-1.15-1.01-1.17-1.75
		l-0.36-8.36l-7.09-4.46c-0.66-0.43-1-1.16-0.92-1.9C191.559,200.059,192.059,199.398,192.759,199.138z M148.259,301.849
		c-0.22,0-0.47,0.01-0.75,0.04c-0.1,0.02-0.21,0.02-0.31,0.02c-1.13,0-2.13-0.63-2.68-1.23c-0.76-0.79-0.82-1.61-0.8-2.02
		c0.18-3.21-2.21-7.96-5.33-10.58c-1.2-1.01-1.71-2.48-1.27-3.67c0.36-0.99,1.29-1.6,2.41-1.6c0.11,0,0.24,0,0.37,0.02
		c3.42,0.39,8.2,1.76,13.26,3.22l1.86,0.54c11.4,3.25,13.79,8.8,13.79,12.88c0,1.23,0.02,2.47,0.12,3.59
		c0.57-0.78,1.28-1.41,2.06-1.8c0.48-0.24,0.92-1.3,1.24-2.08l0.04-0.09c0.35-0.83,0.71-1.69,1.32-2.31
		c0.37-0.37,0.89-0.58,1.42-0.58c0.52,0,1.04,0.21,1.41,0.58c2.91,2.92,2.16,5.89,1.82,7.2c0.32,0.75,0.75,1.61,1.09,2.17
		c2.04,0.32,4.51,0.94,5.63,2.07c0.78,0.77,0.78,2.04,0,2.82c-1.93,1.93-4.28,2.89-5.75,3c-0.1,0.05-0.24,0.13-0.33,0.18l-0.18,0.1
		l-0.04,0.03c-0.16,0.09-0.34,0.19-0.53,0.3c1.03,0.34,2.26,0.64,3.52,0.96l0.06,0.01c3.28,0.82,6.67,1.67,8.68,3.67
		c2.52,2.52,2.57,8.39,2.62,15.19v0.06c0.02,3.39,0.04,6.59,0.43,8.67c0.17,0.84-0.08,1.75-0.69,2.48c-0.64,0.77-1.52,1.2-2.4,1.2
		c-0.3,0-0.6-0.05-0.87-0.15c-5.3-1.83-9.78-7.2-9.78-11.72c0-4.18-0.84-5.39-3.73-5.39c-0.3,0-0.58,0.01-0.85,0.03
		c-0.09,0.02-0.17,0.02-0.25,0.02c-0.51,0-1.26-0.17-1.97-0.97c-0.54-0.6-1.12-1.7-0.98-2.81c0.34-2.85-1.12-5.25-2.23-5.59
		c-2.25-0.69-7.53-2.29-7.53-6.64c0-0.83-0.22-1.59-1.83-1.59c-0.52,0-1.09,0.08-1.68,0.23c-0.18,0.04-0.37,0.07-0.59,0.07
		c-1.4,0-3.09-1.33-3.18-3.05C154.719,306.318,152.509,301.849,148.259,301.849z M233.979,399.079c-1.91,2.26-4.7,3.5-8.29,3.7
		c-22,28.93-47.6,32.31-52.53,32.69c-0.21,0.01-0.4,0.02-0.57,0.02c-2.77,0-3.45-1.76-3.59-2.3c-0.37-1.5,0.5-3.1,2.18-3.99
		c0.69-0.37,1.38-0.76,2.06-1.17c-0.03,0-0.07,0-0.1,0c-4.14,0-8.96-0.79-13.58-2.21c-2.84-0.89-2.91-2.8-2.87-3.37
		c0.12-1.54,1.43-2.68,3.41-2.97c2.7-0.39,5.17-1.14,7.23-1.96c-6.21-0.09-13.48-1.45-18.72-3.5c-2.96-1.17-2.98-2.99-2.84-3.71
		c0.28-1.5,1.74-2.43,3.8-2.43c0.17,0,0.34,0,0.51,0.01c1.07,0.08,2.2,0.12,3.37,0.12c1.47,0,2.92-0.06,4.29-0.18
		c-8.38-2.42-18.48-7.22-23.83-11.5c-2-1.61-1.71-3.27-1.5-3.91c0.43-1.22,1.59-1.97,3.04-1.97c0.32,0,0.66,0.04,1,0.11
		c2.46,0.52,5.76,0.91,9.13,1.11c-10.56-4.59-16.75-11.69-18.54-13.96c-1.52-1.95-1.18-3.38-0.83-4.07c0.45-0.94,1.45-1.54,2.6-1.54
		c0.8,0,1.67,0.3,2.43,0.83c16.39,11.46,38.43,15.54,53.58,15.54c10.37,0,18.88-1.85,23.33-5.07c0.35-0.25,0.77-0.38,1.18-0.38
		c0.24,0,0.49,0.05,0.74,0.15c0.66,0.27,1.13,0.86,1.23,1.54c0.22,1.34,0.95,3.03,1.93,4.6c-1.23-2.92-1.58-5.53-1.08-7.89
		c0.63-2.95,2.54-5.34,5.82-7.3c0.33-0.19,0.68-0.28,1.03-0.28c0.19,0,0.35,0.03,0.49,0.06c0.04,0.01,0.08,0.02,0.12,0.03
		c0.52,0.18,0.96,0.56,1.19,1.05c2.69,5.67,7.39,10.15,14.4,13.69c0.56,0.26,0.95,0.79,1.07,1.44
		C236.699,392.628,236.329,396.298,233.979,399.079z M409.099,328.039l-6.87,4.79l0.05,8.37c0,0.78-0.42,1.46-1.1,1.8
		c-0.29,0.15-0.59,0.22-0.9,0.22c-0.439,0-0.87-0.14-1.21-0.41l-6.68-5.06l-7.96,2.64c-0.16,0.05-0.38,0.1-0.62,0.1
		c-0.56,0-1.07-0.22-1.45-0.61c-0.51-0.54-0.689-1.32-0.45-2.04l2.75-7.92l-4.97-6.76c-0.439-0.62-0.5-1.42-0.16-2.09
		s1.04-1.09,1.78-1.09l8.41,0.17l4.899-6.81c0.36-0.52,0.971-0.84,1.62-0.84c0.051,0,0.11,0,0.17,0.01c0.061,0,0.11,0.01,0.17,0.02
		c0.75,0.14,1.36,0.67,1.58,1.39l2.42,8.03l7.99,2.54c0.71,0.21,1.25,0.84,1.38,1.59
		C410.049,326.858,409.719,327.619,409.099,328.039z M426.5,255.818l-4.65,6.99l3.13,7.78c0.28,0.7,0.14,1.49-0.35,2.06
		c-0.4,0.44-0.94,0.68-1.511,0.68c-0.21,0-0.399-0.03-0.579-0.09l-8.03-2.24l-6.431,5.38c-0.38,0.3-0.829,0.46-1.279,0.46
		c-0.29,0-0.57-0.06-0.83-0.18c-0.68-0.29-1.15-0.99-1.17-1.75l-0.36-8.36l-7.09-4.46c-0.64-0.4-1-1.15-0.92-1.9
		c0.08-0.77,0.57-1.4,1.28-1.67l7.859-2.92l2.05-8.13c0.181-0.72,0.771-1.31,1.521-1.47c0.02,0,0.04-0.01,0.07-0.01
		c0.109-0.02,0.229-0.03,0.35-0.03c0.6,0,1.19,0.28,1.56,0.76l5.221,6.57l8.35-0.57c0.03,0,0.05,0,0.07,0h0.069
		c0.73,0,1.4,0.39,1.74,1.01C426.939,254.349,426.929,255.158,426.5,255.818z M419.069,201.938c0.41,0.29,0.75,0.68,1.01,1.15
		c1.07,1.94,0.561,5.31-1.25,8.19c-2.159,3.45-7.68,8.59-14.02,8.59c-3.5,0-6.51,2.21-9.69,4.55l-0.22,0.15
		c-0.97,0.72-1.99,1.46-3.02,2.12c-0.46,0.3-1.42,1.1-2.53,2.03l-0.16,0.13c-3.36,2.79-9.3,7.75-17.35,12.6
		c0.51,0.19,0.939,0.54,1.21,1.02c0.58,1,0.39,2.36-0.53,3.94c-0.08,0.14-0.18,0.3-0.35,0.46l-19.541,18.7
		c2.09,0.02,4.61,0.66,7.72,1.95c10.57,4.34,4.729,27.6,0.04,46.28c-0.42,1.66-0.8,3.17-1.15,4.58
		c-2.97,12.18-1.57,32.53,2.89,41.88c0.85,1.76,0.81,3.84-0.101,5.28c-0.689,1.08-1.75,1.69-2.93,1.69c-0.36,0-0.72-0.06-1.07-0.17
		c-0.42-0.14-0.81-0.29-1.16-0.43l-0.21-0.08c-1.95-0.8-3.72-1.87-5.59-3c-0.51-0.31-1.03-0.62-1.56-0.94
		c0.19,0.38,0.27,0.83,0.2,1.27l-0.7,3.83c0,0.04-0.01,0.09-0.02,0.13c1.3-0.26,2.53-0.39,3.62-0.4c1.14,0,2.1,0.67,2.46,1.7
		c0.42,1.19,0,2.6-1.02,3.43c-6.24,5.07-5.49,10.79-3.94,15.71c1.77,5.63,5.68,9.98,11.33,12.59c2.15,1,4.93,1.52,8.04,1.52
		c1.78,0,3.59-0.17,5.36-0.49c0.319-0.05,0.569-0.07,0.8-0.07c1.58,0,2.86,0.88,3.33,2.28c0.5,1.52-0.101,3.18-1.53,4.23
		c-3.93,2.91-8.64,4.26-14.84,4.26c-3.66,0-7.61-0.46-11.33-0.95c-12.06-1.6-12.06-9.5-12.06-13.3c0.01-0.68,0.01-1.35-0.05-1.72
		c-0.14-0.75-1.07-1.38-2.05-1.38c-1.09,0-2.13,0.73-2.91,2.05c-0.37,0.62-1.01,0.98-1.72,0.98c-2.42,0-5.78-0.77-7.94-2.91
		c-0.37-0.35-0.59-0.88-0.59-1.42c0-3.87,0-15.41,6.77-19.09c-0.05-1.22-0.05-3.04,0.27-4.79c0.26-1.53,1.41-2.56,2.87-2.56
		c0.53,0,1.06,0.14,1.53,0.4l1.44-8.11c0.09-0.54,0.4-1.01,0.85-1.32c0.2-0.13,0.41-0.22,0.63-0.28c-0.27-0.04-0.54-0.09-0.81-0.13
		l-0.53-0.07l-0.07-0.01c-0.37-0.05-0.73-0.09-1.09-0.13c-0.23-0.02-0.46-0.04-0.68-0.05c-0.54-0.04-1.07-0.07-1.6-0.09
		c-0.41-0.01-0.85-0.02-1.29-0.02c-4.77,0-9.62,1.29-14.3,3.15c0.11,0.08,0.21,0.17,0.31,0.28c0.54,0.6,0.67,1.49,0.31,2.23
		l-6.62,13.02c-0.01,0.03-0.03,0.06-0.05,0.09c0.75,0.08,1.48,0.21,2.17,0.38c1.09,0.26,1.86,1.13,1.97,2.22
		c0.14,1.26-0.6,2.54-1.79,3.1c-7.27,3.42-7.93,9.15-7.62,14.31c0.37,5.88,3.13,11.06,7.97,14.95c2.92,2.34,7.58,3.88,12.77,4.22
		c1.78,0.11,3.16,1.25,3.43,2.83c0.27,1.66-0.73,3.32-2.45,4.04c-2.55,1.06-5.17,1.57-8.02,1.57c-5.88,0-11.97-2.2-18.21-4.66
		c-11.32-4.46-9.4-12.14-8.48-15.83c0.15-0.6,0.33-1.28,0.35-1.66c0.03-0.38-0.15-0.8-0.48-1.16c-0.45-0.47-1.1-0.74-1.77-0.74
		c-0.9,0-1.84,0.47-2.72,1.36c-0.38,0.38-0.9,0.6-1.42,0.6c-0.16,0-0.32-0.02-0.48-0.06c-2.37-0.59-5.46-2.14-7.01-4.74
		c-0.27-0.44-0.35-0.97-0.24-1.49c0.01-0.01,0.02-0.05,0.02-0.06c0.93-3.75,3.71-14.92,11.15-16.86c0.24-1.21,0.68-2.98,1.41-4.59
		c0.53-1.18,1.54-1.88,2.71-1.88c1.2,0,2.32,0.77,2.88,1.92l2.23-4.4c-1.32,0.62-2.38,0.92-3.22,0.92c-1.76,0-2.39-1.2-2.54-1.57
		c-0.69-1.56,0.21-3.48,3-6.39c6.02-6.3,13-15.54,14.55-22.54c1.94-8.67,6.86-20.93,13.54-33.74c-10.22,10.71-18.29,19.39-24,25.81
		c-1.07,1.21-2.11,2.4-3.11,3.55c-8.05,9.21-14.4,16.49-23.74,16.49c-3.65,0-7.54-1.14-11.85-3.48c0.07,0.2,0.11,0.38,0.14,0.53
		c0.21,1.38-0.59,2.46-0.94,2.86c-0.01,0.02-0.03,0.04-0.05,0.06l-0.06,0.05l-23.03,22.06c0.06,0.08,0.13,0.17,0.21,0.27
		c0.37,0.41,0.73,0.56,0.94,0.56c0.04,0,0.09,0,0.17-0.03l0.65-0.23l0.08-0.03c1.79-0.64,3.64-1.3,5.16-1.3c1.11,0,2,0.33,2.65,0.99
		c0.48,0.47,0.72,1.17,0.63,1.87c-0.13,1.21-1.1,2.16-3.41,3.69c0.32,0.13,0.62,0.31,0.88,0.56c0.69,0.7,0.87,1.69,0.48,2.68
		c-0.81,2.08-5,5.24-10.46,5.47c-0.01,0-0.07,0-0.08,0c-0.31,0-0.62-0.07-0.91-0.22c-6.23-3.25-10.95-7.42-14.04-12.39
		c-0.06-0.07-0.11-0.15-0.15-0.24c-1.06-1.91-1.43-11.24,0.56-14.61c0.89-1.52,2.12-1.75,2.77-1.75c1.97,0,2.85,1.32,3.3,2.87
		c0.31-2.77,0.91-5.48,3.55-5.48c0.31,0,0.64,0.05,0.97,0.15c2.26,0.76,3.04,3.39,3.42,6.38l18.91-18.11
		c0.43-0.48,1.03-0.78,1.66-0.82c-10.03-9.51-4.31-24.33,1.71-39.93c2.18-5.66,4.43-11.5,6-17.24c6-22,13.58-38.45,17.65-42.76
		c0.66-0.67,1.28-1.28,1.84-1.82c-0.19,0.13-0.38,0.26-0.57,0.39c-2.66,1.81-14.53,14.1-25.56,31.06
		c-9.79,15.05-21.31,37.56-20.6,59.36c0.03,0.92-0.35,1.84-1.07,2.58c-0.84,0.87-2.02,1.39-3.14,1.39c-0.65,0-1.27-0.18-1.78-0.51
		c-22.86-14.94-20.09-32.53-17.87-46.66c0.28-1.71,0.56-3.52,0.78-5.27c0.71-5.96-0.43-10.84-3.41-14.49
		c-4.14-5.1-12-8.19-23.35-9.17c-1.31-0.12-2.5-1.1-3.01-2.5c-0.51-1.4-0.23-2.85,0.72-3.78c26.11-25.76,63.29-27.17,75.51-27.64
		l0.68-0.02c0.27-0.01,0.52-0.02,0.75-0.03c1.89-0.07,3.38-0.11,4.68-0.11c2.8,0,4.95,0.15,6.75,0.43
		c-0.35-0.16-0.68-0.39-0.97-0.67c-2.4-2.41,0.39-6.52,3.7-10.37c-6.04,2.67-11.12,4.39-13.89,4.39c-1.26,0-2.2-0.32-2.87-0.99
		c-0.5-0.51-1.58-1.97-0.64-4.52c1.8-4.86,10.53-12.4,20.16-13.18c0.1-0.02,0.18-0.02,0.22-0.02c16.96-0.68,30.08-14.43,34.36-22.93
		c0.09-0.21,0.24-0.42,0.43-0.59c6.37-5.82,17.21-9.04,22.26-9.04c1.55,0,2.59,0.31,3.26,0.98c0.72,0.73,1.05,1.68,0.93,2.74
		c-0.35,3.29-5.59,7.84-16.23,15.04c0.48,0.07,0.98,0.19,1.49,0.38c0.03,0.01,0.07,0.03,0.1,0.04c0,0,0.04,0.02,0.07,0.03
		c1.58,0.72,2.66,1.88,3.18,3.44c0.01,0.05,0.03,0.12,0.04,0.17v0.01c0.51,2.13-0.89,3.85-2.81,5.31c1.29-0.4,2.56-0.7,3.72-0.7
		c0.09,0,0.18,0,0.28,0.01h0.03c0.04,0,0.08,0,0.12,0.01c0.18,0.02,0.38,0.03,0.62,0.03c8.97,0,9.42,4.72,9.42,5.66
		c0,1.99-1.93,2.5-4.6,3.2c-1.43,0.38-4.06,1.07-4.74,1.76c-0.01,0-0.01,0-0.01,0c0,0.14,0.07,0.5,0.1,0.64
		c0.16,0.82,0.4,2.01-0.41,3.17c-0.61,0.86-1.59,1.38-3.14,1.66c0.3,0.55,0.37,1.13,0.44,1.62c0.04,0.31,0.09,0.79,0.17,0.88
		c0,0,0.15,0.11,0.78,0.11c3.27,0,7.46,2.32,9.14,5.06c1.3,2.1,0.81,3.79,0.39,4.6c-0.84,1.67-2.37,2.56-4.43,2.56
		c-1.98,0-4.24-0.79-6.86-1.7l-0.86-0.29l-1.01-0.35c-0.65-0.22-1.34-0.32-2.11-0.32c-1.26,0-2.66,0.3-3.78,0.54
		c-1.43,0.29-2.88,0.59-4.39,0.59c-1.5,0-2.84-0.29-4.09-0.9c-0.25-0.12-0.49-0.22-0.72-0.32c0,0.02,0.01,0.03,0.01,0.05
		c0.41,1.26,0.07,2.68-1.15,4.74l-0.09,0.16c-0.48,0.8-0.92,1.54-1.38,2.18c5.64-1,11.27-1.59,15.29-1.59
		c4.16,0,6.59,0.57,7.87,1.85c0.22,0.21,0.39,0.49,0.48,0.79c0.42-0.5,0.67-0.77,0.68-0.79c0.38-0.37,0.9-0.59,1.42-0.59h0.06
		c0.02,0,0.04,0,0.06,0c2,0.11,4.02,0.17,6.19,0.17c2.96,0,5.8-0.1,8.3-0.18l0.53-0.02l0.79-0.03c1.73-0.06,3.23-0.11,4.51-0.11
		c1.45,0,2.48,0.07,3.22,0.21c0.06,0.01,0.1,0.01,0.14,0.01c1.62,0,6.46-2.03,14.78-7.74c1.96-1.35,5.36-3.19,8.971-5.14l0.22-0.12
		l0.06-0.03c4.79-2.58,12.811-6.9,13.771-8.53c1.88-3.29,5.3-8.27,7.05-10.03c0.25-0.24,0.43-1.07,0.53-1.57
		c0.3-1.32,0.899-4.04,3.87-4.04c1.18,0,2.229,0.63,2.949,1.77c0.261,0.41,0.471,0.87,0.641,1.39c0-0.17,0-0.34-0.01-0.51
		c-0.021-0.59,0.21-1.15,0.619-1.54l11.48-10.99c0.73-0.73,1.9-1.16,3.2-1.16c1.31,0,2.5,0.43,3.26,1.19
		c0.79,0.79,1.62,2.21,1.6,3.82c-0.01,1.16-0.479,2.21-1.34,3.02L419.069,201.938z"/>
</g>
</svg>
